<svg width="2206" height="2207" viewBox="0 0 2206 2207" fill="none" xmlns="http://www.w3.org/2000/svg">
<path d="M991.135 722.563C1152.53 721.588 1298.4 761.157 1403.76 825.39C1509.27 889.718 1572.77 977.772 1573.35 1073.72C1573.93 1169.68 1511.5 1258.49 1406.77 1324.09C1302.2 1389.59 1156.81 1430.92 995.418 1431.89C834.027 1432.86 688.148 1393.3 582.793 1329.06C477.282 1264.73 413.781 1176.68 413.202 1080.73C412.622 984.777 475.055 895.963 579.782 830.365C684.353 764.864 829.744 723.537 991.135 722.563Z" stroke="#0F52BA" stroke-width="20"/>
<path d="M991.135 722.563C1152.53 721.588 1298.4 761.157 1403.76 825.39C1509.27 889.718 1572.77 977.772 1573.35 1073.72C1573.93 1169.68 1511.5 1258.49 1406.77 1324.09C1302.2 1389.59 1156.81 1430.92 995.418 1431.89C834.027 1432.86 688.148 1393.3 582.793 1329.06C477.282 1264.73 413.781 1176.68 413.202 1080.73C412.622 984.777 475.055 895.963 579.782 830.365C684.353 764.864 829.744 723.537 991.135 722.563Z" stroke="white" stroke-opacity="0.3" stroke-width="20"/>
<path d="M932.517 691.63C1119.25 614.164 1307.28 591.01 1460.1 615.72C1613.1 640.46 1729.15 712.756 1775.57 824.66C1821.99 936.564 1791.19 1069.78 1700.64 1195.56C1610.19 1321.18 1460.98 1437.93 1274.25 1515.39C1087.51 1592.86 899.483 1616.01 746.667 1591.3C593.669 1566.56 477.615 1494.27 431.193 1382.36C384.771 1270.46 415.57 1137.24 506.127 1011.47C596.578 885.838 745.782 769.095 932.517 691.63Z" stroke="#0F52BA" stroke-width="20"/>
<path d="M932.517 691.63C1119.25 614.164 1307.28 591.01 1460.1 615.72C1613.1 640.46 1729.15 712.756 1775.57 824.66C1821.99 936.564 1791.19 1069.78 1700.64 1195.56C1610.19 1321.18 1460.98 1437.93 1274.25 1515.39C1087.51 1592.86 899.483 1616.01 746.667 1591.3C593.669 1566.56 477.615 1494.27 431.193 1382.36C384.771 1270.46 415.57 1137.24 506.127 1011.47C596.578 885.838 745.782 769.095 932.517 691.63Z" stroke="white" stroke-opacity="0.3" stroke-width="20"/>
</svg>
