<svg width="2299" height="2245" viewBox="0 0 2299 2245" fill="none" xmlns="http://www.w3.org/2000/svg">
<path d="M953.135 691.563C1114.53 690.588 1260.4 730.157 1365.76 794.39C1471.27 858.718 1534.77 946.772 1535.35 1042.72C1535.93 1138.68 1473.5 1227.49 1368.77 1293.09C1264.2 1358.59 1118.81 1399.92 957.418 1400.89C796.027 1401.86 650.148 1362.3 544.793 1298.06C439.282 1233.73 375.781 1145.68 375.202 1049.73C374.622 953.777 437.055 864.963 541.782 799.365C646.353 733.864 791.744 692.537 953.135 691.563Z" stroke="#0F52BA" stroke-width="20"/>
<path d="M953.135 691.563C1114.53 690.588 1260.4 730.157 1365.76 794.39C1471.27 858.718 1534.77 946.772 1535.35 1042.72C1535.93 1138.68 1473.5 1227.49 1368.77 1293.09C1264.2 1358.59 1118.81 1399.92 957.418 1400.89C796.027 1401.86 650.148 1362.3 544.793 1298.06C439.282 1233.73 375.781 1145.68 375.202 1049.73C374.622 953.777 437.055 864.963 541.782 799.365C646.353 733.864 791.744 692.537 953.135 691.563Z" stroke="white" stroke-opacity="0.3" stroke-width="20"/>
<path d="M1025.52 729.63C1212.25 652.164 1400.28 629.01 1553.1 653.72C1706.1 678.46 1822.15 750.756 1868.57 862.66C1914.99 974.564 1884.2 1107.78 1793.64 1233.56C1703.19 1359.18 1553.98 1475.93 1367.25 1553.39C1180.51 1630.86 992.484 1654.01 839.667 1629.3C686.67 1604.56 570.616 1532.27 524.194 1420.36C477.772 1308.46 508.571 1175.24 599.128 1049.47C689.579 923.838 838.783 807.095 1025.52 729.63Z" stroke="#0F52BA" stroke-width="20"/>
<path d="M1025.52 729.63C1212.25 652.164 1400.28 629.01 1553.1 653.72C1706.1 678.46 1822.15 750.756 1868.57 862.66C1914.99 974.564 1884.2 1107.78 1793.64 1233.56C1703.19 1359.18 1553.98 1475.93 1367.25 1553.39C1180.51 1630.86 992.484 1654.01 839.667 1629.3C686.67 1604.56 570.616 1532.27 524.194 1420.36C477.772 1308.46 508.571 1175.24 599.128 1049.47C689.579 923.838 838.783 807.095 1025.52 729.63Z" stroke="white" stroke-opacity="0.3" stroke-width="20"/>
</svg>
