<?xml version="1.0" encoding="UTF-8"?>
<svg id="_Слой_2" data-name="Слой 2" xmlns="http://www.w3.org/2000/svg" viewBox="0 0 1064.78 630.26">
  <defs>
    <style>
      .cls-1 {
        fill: #5786cf;
      }
    </style>
  </defs>
  <g id="_Слой_1-2" data-name="Слой 1">
    <g>
      <path class="cls-1" d="M978.94,68.21c17.9,30.99,31.72,62.34,41.06,93.19,19.04,62.85,19.72,123.13,2.02,179.16-18.07,57.18-54.31,106.95-107.74,147.92-26.21,20.1-56.5,37.93-90.04,53-33.6,15.1-70.69,27.53-110.23,36.94h0s0,0,0,0c-77.77,18.51-163.3,25.32-254.22,20.24-94.63-5.29-191.15-23.3-286.86-53.54-60.41-19.09-118.26-42.33-172.93-69.45v33.36c51.43,24.7,106.26,46.49,163.9,64.7,200.66,63.4,398.26,71.68,557.07,33.88,165.47-39.39,288.83-128.79,329.66-258.01,35.46-112.24,2.68-235.67-80.47-349.59h-37.63c17.61,22.44,33.17,45.29,46.41,68.21Z"/>
      <path class="cls-1" d="M754.56,42.4c42.53,39.93,73.46,82.33,91.93,126.04,18.43,43.6,23.52,86.66,15.13,127.99-4.97,24.48-14.66,47.94-28.81,69.73-14.02,21.59-32.52,41.74-54.98,59.87-45.37,36.64-107.02,64.97-178.29,81.93h0s0,0,0,0c-50.37,11.99-104.71,18.25-161.5,18.61-59.02.37-119.59-5.66-180.02-17.92-74.14-15.05-144.17-38.59-208.15-69.97-17.29-8.48-33.92-17.42-49.87-26.8v34.55c72.84,40.64,158.37,72.61,252.05,91.62,127.63,25.91,250.7,23.79,354.44-.9,151.12-35.97,261.2-119.84,284.53-234.75,21.29-104.89-34.07-214.14-139.05-302.4h-48.42c18.23,13.46,35.26,27.61,51.01,42.4Z"/>
    </g>
  </g>
</svg>