<?xml version="1.0" encoding="UTF-8"?>
<svg id="_Слой_2" data-name="Слой 2" xmlns="http://www.w3.org/2000/svg" viewBox="0 0 1127.33 625.45">
  <defs>
    <style>
      .cls-1 {
        fill: #5786cf;
      }
    </style>
  </defs>
  <g id="_Слой_1-2" data-name="Слой 1">
    <g>
      <path class="cls-1" d="M1127.33,460.87c-30.03,39.32-70.85,70.69-121.74,93.45-30.15,13.49-63.75,23.82-99.86,30.71-36.19,6.91-75.14,10.41-115.78,10.41-79.94,0-164.73-13.18-252-39.17-90.84-27.05-180.56-66.92-266.67-118.5-87.91-52.66-166.76-114.33-234.37-183.3-12.76-13.01-25.07-26.27-36.9-39.7v44.57c70.31,74.79,156.53,144.67,255.86,204.17,180.53,108.13,370.84,161.94,534.09,161.94,140.21,0,260.46-39.71,337.38-118.77v-45.81Z"/>
      <path class="cls-1" d="M1064.39,0c23.86,24.82,44.9,50.55,62.94,77.01V2.01c-.4-.67-.8-1.34-1.21-2.01h-61.73Z"/>
      <path class="cls-1" d="M873.19,500.66c-51.78,0-106.09-6.49-161.42-19.29-57.5-13.3-115.03-33.19-170.98-59.12-68.64-31.8-131.32-70.92-186.3-116.26-52.71-43.47-96.06-90.71-128.87-140.42-32.13-48.69-52.4-97.1-60.25-143.9-1.23-7.31-2.14-14.54-2.73-21.67h-30.08c11.91,160.39,165.22,342.71,395.61,449.47,118.16,54.75,238.38,81.19,345.02,81.19s190.76-23.98,254.15-70.3v-38.49c-17.52,15.58-38.24,29.15-61.73,40.37-52.62,25.14-119.16,38.42-192.41,38.42Z"/>
    </g>
  </g>
</svg>