<svg width="1782" height="1234" viewBox="0 0 1782 1234" fill="none" xmlns="http://www.w3.org/2000/svg">
<path d="M691.666 197.115C851.255 221.186 989.231 282.903 1083.35 362.701C1177.6 442.617 1226.68 539.455 1212.37 634.335C1198.06 729.216 1122.6 807.271 1008.97 855.83C895.501 904.317 745.46 922.592 585.871 898.521C426.283 874.45 288.307 812.732 194.191 732.935C99.9348 653.019 50.861 556.181 65.172 461.301C79.4831 366.42 154.937 288.365 268.571 239.806C382.037 191.319 532.078 173.044 691.666 197.115Z" stroke="#0F52BA" stroke-width="20"/>
<path d="M691.666 197.115C851.255 221.186 989.231 282.903 1083.35 362.701C1177.6 442.617 1226.68 539.455 1212.37 634.335C1198.06 729.216 1122.6 807.271 1008.97 855.83C895.501 904.317 745.46 922.592 585.871 898.521C426.283 874.45 288.307 812.732 194.191 732.935C99.9348 653.019 50.861 556.181 65.172 461.301C79.4831 366.42 154.937 288.365 268.571 239.806C382.037 191.319 532.078 173.044 691.666 197.115Z" stroke="white" stroke-opacity="0.3" stroke-width="20"/>
<path d="M852.223 183.445C1048.71 135.883 1238.06 142.174 1385.19 190.289C1532.5 238.462 1635.94 327.885 1664.44 445.635C1692.94 563.385 1641.85 690.211 1532.88 800.418C1424.04 910.495 1258.53 1002.68 1062.04 1050.24C865.548 1097.81 676.204 1091.52 529.07 1043.4C381.762 995.228 278.327 905.805 249.824 788.055C221.322 670.305 272.412 543.478 381.382 433.271C490.225 323.194 655.731 231.008 852.223 183.445Z" stroke="#0F52BA" stroke-width="20"/>
<path d="M852.223 183.445C1048.71 135.883 1238.06 142.174 1385.19 190.289C1532.5 238.462 1635.94 327.885 1664.44 445.635C1692.94 563.385 1641.85 690.211 1532.88 800.418C1424.04 910.495 1258.53 1002.68 1062.04 1050.24C865.548 1097.81 676.204 1091.52 529.07 1043.4C381.762 995.228 278.327 905.805 249.824 788.055C221.322 670.305 272.412 543.478 381.382 433.271C490.225 323.194 655.731 231.008 852.223 183.445Z" stroke="white" stroke-opacity="0.3" stroke-width="20"/>
</svg>
