<?xml version="1.0" encoding="UTF-8"?>
<svg id="_Слой_2" data-name="Слой 2" xmlns="http://www.w3.org/2000/svg" viewBox="0 0 1124.79 626.78">
  <defs>
    <style>
      .cls-1 {
        fill: #5786cf;
      }
    </style>
  </defs>
  <g id="_Слой_1-2" data-name="Слой 1">
    <g>
      <path class="cls-1" d="M0,144c27.78-29.82,62.7-54.23,104.37-72.87,30.15-13.49,63.75-23.82,99.86-30.71,36.19-6.91,75.14-10.41,115.79-10.41h0c79.94,0,164.72,13.18,252,39.17,90.84,27.05,180.56,66.92,266.66,118.5,87.91,52.66,166.76,114.33,234.37,183.3,18.18,18.54,35.47,37.57,51.73,56.92v-45.69c-72.88-80.86-164.26-156.52-270.69-220.26C673.58,53.81,483.27,0,320.01,0,189.95,0,77.06,34.16,0,102.22v41.78Z"/>
      <path class="cls-1" d="M0,593.63v33.15h19.92c-7-11.02-13.65-22.08-19.92-33.15Z"/>
      <path class="cls-1" d="M236.57,594.13c-32.13-48.69-52.4-97.1-60.25-143.9-7.83-46.68-2.81-89.75,14.92-128.02,10.5-22.67,25.36-43.25,44.17-61.17,18.64-17.76,41.3-33.07,67.35-45.52,52.62-25.14,119.16-38.42,192.41-38.42h0c51.78,0,106.09,6.49,161.42,19.29,57.5,13.3,115.03,33.19,170.98,59.12,68.64,31.8,131.32,70.92,186.3,116.26,43.6,35.96,80.8,74.5,110.92,114.88v-48.08c-68.92-81.18-166.66-155.63-284.6-210.28-118.16-54.75-238.38-81.19-345.02-81.19-155.34,0-281.85,56.1-331.15,162.49-43.75,94.41-17.96,209.62,58.58,317.19h37.31c-8.29-10.76-16.08-21.65-23.34-32.66Z"/>
    </g>
  </g>
</svg>