<?xml version="1.0" encoding="UTF-8"?>
<svg id="_Слой_2" data-name="Слой 2" xmlns="http://www.w3.org/2000/svg" viewBox="0 0 56.51 19.85">
  <defs>
    <style>
      .cls-1 {
        fill: #fff;
      }
    </style>
  </defs>
  <g id="_Слой_2-2" data-name="Слой 2">
    <g>
      <rect class="cls-1" x="17.72" y="16.24" width="21.95" height="3.62"/>
      <path class="cls-1" d="M34.94,19.85h15.82c1.59,0,3.03-.96,3.63-2.43l2.12-5.13-19.26,1.93c-.23.02-.42.18-.5.39l-1.82,5.24Z"/>
      <path class="cls-1" d="M20.22,14.52h-2.5v-6.65h-7.26c-.37,0-.72.2-.9.53l-3.45,6.12H.59c-.33,0-.59.27-.59.59v3.15c0,.87.71,1.58,1.58,1.58h17.71c.87,0,1.58-.71,1.58-1.58v-3.09c0-.36-.3-.66-.66-.66Z"/>
      <path class="cls-1" d="M19.06,4.35h-4.28c-.23,0-.44.13-.54.34l-1.55,3.19,5.03,2.94,1.75-5.92c.08-.28-.13-.55-.41-.55ZM18.67,5.44l-.54,1.7c-.04.14-.17.23-.31.23h-1.04c-.18,0-.33-.15-.33-.33v-1.7c0-.18.15-.33.33-.33h1.58c.22,0,.38.22.31.43Z"/>
      <rect class="cls-1" x="16.01" width=".55" height="4.35"/>
      <rect class="cls-1" x="19.87" y="13" width="10.74" height="4.43" rx=".78" ry=".78"/>
      <rect class="cls-1" x="48.93" y="2.38" width=".54" height="10.62"/>
    </g>
  </g>
</svg>