<?xml version="1.0" encoding="UTF-8"?>
<svg id="_Слой_2" data-name="Слой 2" xmlns="http://www.w3.org/2000/svg" viewBox="0 0 47.98 47.98">
  <defs>
    <style>
      .cls-1 {
        fill: #fff;
      }
    </style>
  </defs>
  <g id="_Слой_1-2" data-name="Слой 1">
    <path class="cls-1" d="M44.56,23.99c-1.04,0-1.9-.81-1.99-1.85-.38-4.4-2.17-8.2-5.35-11.38s-6.98-4.97-11.38-5.35c-1.04-.09-1.85-.94-1.85-1.99v-1.33C23.99.93,24.98,0,26.14.09c2.53.22,4.94.82,7.22,1.81,2.91,1.27,5.44,2.98,7.6,5.13s3.87,4.69,5.13,7.6c.99,2.28,1.59,4.68,1.81,7.22.1,1.16-.84,2.15-2,2.15h-1.33ZM33.88,23.99c-.97,0-1.86-.65-2.04-1.6-.29-1.54-1.02-2.89-2.19-4.06s-2.52-1.9-4.06-2.19c-.95-.18-1.6-1.07-1.6-2.04v-1.28c0-1.23,1.1-2.18,2.31-1.98,2.71.44,5.08,1.68,7.12,3.72s3.28,4.41,3.72,7.12c.2,1.21-.75,2.31-1.98,2.31h-1.28ZM45.18,47.98c-5.55,0-11.04-1.21-16.46-3.63-5.42-2.42-10.35-5.85-14.79-10.3s-7.87-9.37-10.3-14.79C1.21,13.84,0,8.35,0,2.8c0-.8.27-1.47.8-2s1.2-.8,2-.8h10.8c.62,0,1.18.21,1.67.63s.78.92.87,1.5l1.73,9.33c.09.71.07,1.31-.07,1.8s-.38.91-.73,1.27l-5.39,5.45c-.66.66-.76,1.68-.27,2.48.7,1.15,1.49,2.28,2.36,3.37,1.22,1.53,2.57,3.01,4.03,4.43,1.38,1.38,2.82,2.65,4.33,3.83,1.09.85,2.22,1.64,3.4,2.39.8.5,1.84.4,2.5-.27l5.16-5.16c.4-.4.92-.7,1.57-.9s1.28-.26,1.9-.17l9.2,1.87c.62.18,1.13.5,1.53.97s.6.99.6,1.57v10.8c0,.8-.27,1.47-.8,2s-1.2.8-2,.8Z"/>
  </g>
</svg>