<?xml version="1.0" encoding="UTF-8"?>
<svg id="_Слой_2" data-name="Слой 2" xmlns="http://www.w3.org/2000/svg" viewBox="0 0 38.5 47.27">
  <defs>
    <style>
      .cls-1 {
        fill: #fff;
      }
    </style>
  </defs>
  <g id="_Слой_1-2" data-name="Слой 1">
    <path class="cls-1" d="M32.69,5.35C28.82,1.78,24.34,0,19.25,0S9.67,1.78,5.8,5.35C1.93,8.92,0,13.71,0,19.73c0,4.01,1.59,8.37,4.78,13.08,2.89,4.28,7.14,8.88,12.73,13.8.99.88,2.48.88,3.48,0,5.59-4.92,9.83-9.52,12.73-13.8,3.19-4.71,4.78-9.07,4.78-13.08,0-6.01-1.93-10.81-5.8-14.38ZM19.25,26.11c-3.46,0-6.26-2.8-6.26-6.26s2.8-6.26,6.26-6.26,6.26,2.8,6.26,6.26-2.8,6.26-6.26,6.26Z"/>
  </g>
</svg>