<?xml version="1.0" encoding="UTF-8"?>
<svg id="_Слой_2" data-name="Слой 2" xmlns="http://www.w3.org/2000/svg" viewBox="0 0 56.51 19.85">
  <g id="_Слой_2-2" data-name="Слой 2">
    <g>
      <path d="M.59,14.52h19.63c.36,0,.66.3.66.66v3.09c0,.87-.71,1.58-1.58,1.58H1.58c-.87,0-1.58-.71-1.58-1.58v-3.15c0-.33.27-.59.59-.59Z"/>
      <rect x="17.72" y="16.24" width="21.95" height="3.62"/>
      <path d="M34.94,19.85h15.82c1.59,0,3.03-.96,3.63-2.43l2.12-5.13-19.26,1.93c-.23.02-.42.18-.5.39l-1.82,5.24Z"/>
      <path d="M17.72,14.52H6.17l3.4-6.12c.18-.33.52-.53.9-.53h7.26v6.65Z"/>
      <path d="M19.06,4.35h-4.28c-.23,0-.44.13-.54.34l-1.55,3.19,5.03,2.94,1.75-5.92c.08-.28-.13-.55-.41-.55ZM18.67,5.44l-.54,1.7c-.04.14-.17.23-.31.23h-1.04c-.18,0-.33-.15-.33-.33v-1.7c0-.18.15-.33.33-.33h1.58c.22,0,.38.22.31.43Z"/>
      <rect x="16.01" width=".55" height="4.35"/>
      <rect x="19.87" y="13" width="10.74" height="4.43" rx=".78" ry=".78"/>
      <rect x="48.93" y="2.38" width=".54" height="10.62"/>
    </g>
  </g>
</svg>