<?xml version="1.0" encoding="UTF-8"?>
<svg id="_Слой_2" data-name="Слой 2" xmlns="http://www.w3.org/2000/svg" viewBox="0 0 28.54 10.96">
  <defs>
    <style>
      .cls-1 {
        fill: #fff;
      }
    </style>
  </defs>
  <g id="_Слой_2-2" data-name="Слой 2">
    <g>
      <rect class="cls-1" x="8.29" y="1.64" width="1.9" height="7.61" transform="translate(18.47 10.9) rotate(180)"/>
      <path class="cls-1" d="M24.96,9.25h2.42v-4.93c0-.23-.16-.43-.39-.49l-2.03-.47v5.89Z"/>
      <path class="cls-1" d="M24.71,1.38c-.15-.39-.52-.65-.94-.65H.5c-.28,0-.5.22-.5.5v7.52c0,.28.22.5.5.5h25V3.49l-.79-2.11ZM18.09,2.82c0,.11-.09.2-.2.2h-1.36c-.11,0-.2-.09-.2-.2v-1.26c0-.11.09-.2.2-.2h1.36c.11,0,.2.09.2.2v1.26ZM20.46,2.82c0,.11-.09.2-.2.2h-1.36c-.11,0-.2-.09-.2-.2v-1.26c0-.11.09-.2.2-.2h1.36c.11,0,.2.09.2.2v1.26ZM24.47,3.43l-2.05-.36c-.1-.02-.17-.1-.17-.2v-1.31c0-.11.09-.2.2-.2h1.42c.08,0,.16.05.19.13l.63,1.67c.05.15-.07.29-.22.27Z"/>
      <rect class="cls-1" x="27.25" y="8.36" width="1.29" height=".89"/>
      <rect class="cls-1" x="28.1" y="6.74" width=".44" height="2.02"/>
      <g>
        <path class="cls-1" d="M25.21,9.14c-.12-.7-.72-1.24-1.46-1.24s-1.34.54-1.46,1.24h2.92Z"/>
        <path class="cls-1" d="M19.84,9.14c-.15-.66-.74-1.15-1.45-1.15s-1.29.49-1.45,1.15h2.89Z"/>
        <path class="cls-1" d="M10.72,9.14c-.15-.66-.74-1.15-1.45-1.15s-1.29.49-1.45,1.15h2.89Z"/>
        <path class="cls-1" d="M5.56,9.14c-.15-.66-.74-1.15-1.45-1.15s-1.29.49-1.45,1.15h2.89Z"/>
        <path class="cls-1" d="M16.94,9.76c.13.68.73,1.2,1.46,1.2s1.32-.52,1.46-1.2h-2.91Z"/>
        <path class="cls-1" d="M22.32,9.76c.17.64.74,1.11,1.43,1.11s1.27-.47,1.43-1.11h-2.87Z"/>
        <path class="cls-1" d="M2.65,9.76c.13.68.73,1.2,1.46,1.2s1.32-.52,1.46-1.2h-2.91Z"/>
        <path class="cls-1" d="M7.82,9.76c.13.68.73,1.2,1.46,1.2s1.32-.52,1.46-1.2h-2.91Z"/>
      </g>
      <rect class="cls-1" x="3.1" width="9.85" height="1.64" rx=".44" ry=".44"/>
    </g>
  </g>
</svg>