<?xml version="1.0" encoding="UTF-8"?>
<svg id="_Слой_2" data-name="Слой 2" xmlns="http://www.w3.org/2000/svg" viewBox="0 0 86.8 11.37">
  <g id="_Слой_2-2" data-name="Слой 2">
    <g>
      <rect x="66.55" y="2.05" width="1.9" height="7.61" transform="translate(135 11.72) rotate(180)"/>
      <path d="M83.23,9.66h2.42v-4.93c0-.23-.16-.43-.39-.49l-2.03-.47v5.89Z"/>
      <path d="M82.97,1.79c-.15-.39-.52-.65-.94-.65h-23.27c-.28,0-.5.22-.5.5v7.52c0,.28.22.5.5.5h25V3.9l-.79-2.11ZM76.36,3.23c0,.11-.09.2-.2.2h-1.36c-.11,0-.2-.09-.2-.2v-1.26c0-.11.09-.2.2-.2h1.36c.11,0,.2.09.2.2v1.26ZM78.72,3.23c0,.11-.09.2-.2.2h-1.36c-.11,0-.2-.09-.2-.2v-1.26c0-.11.09-.2.2-.2h1.36c.11,0,.2.09.2.2v1.26ZM82.73,3.84l-2.05-.36c-.1-.02-.17-.1-.17-.2v-1.31c0-.11.09-.2.2-.2h1.42c.08,0,.16.05.19.13l.63,1.67c.05.15-.07.29-.22.27Z"/>
      <rect x="85.51" y="8.77" width="1.29" height=".89"/>
      <rect x="86.36" y="7.15" width=".44" height="2.02"/>
      <rect x="29.61" y=".88" width="25.43" height="8.12" rx="4.06" ry="4.06"/>
      <rect x="29.35" y="7.63" width="25.94" height="1.92" rx=".28" ry=".28"/>
      <rect x="56.53" y="8.32" width=".49" height=".66"/>
      <rect x="55.29" y="8.11" width=".94" height="1.08"/>
      <rect x="56.23" y="7.87" width=".3" height="1.57" rx=".12" ry=".12"/>
      <rect x="57.32" y="8.11" width=".94" height="1.08" transform="translate(115.58 17.31) rotate(180)"/>
      <rect x="57.02" y="7.87" width=".3" height="1.57" rx=".12" ry=".12" transform="translate(114.34 17.31) rotate(180)"/>
      <rect x="28.41" y="8.11" width=".94" height="1.08" transform="translate(57.76 17.31) rotate(180)"/>
      <rect x="28.11" y="7.87" width=".3" height="1.57" rx=".12" ry=".12" transform="translate(56.51 17.31) rotate(180)"/>
      <rect x="33.88" width="2.97" height="1.21" rx=".33" ry=".33"/>
      <rect x="41.1" width="2.97" height="1.21" rx=".33" ry=".33"/>
      <rect x="48.31" width="2.97" height="1.21" rx=".33" ry=".33"/>
      <rect x="1.5" y=".88" width="25.43" height="8.12" rx="4.06" ry="4.06"/>
      <rect x="1.24" y="7.63" width="25.94" height="1.92" rx=".28" ry=".28"/>
      <rect x="28.43" y="8.32" width=".49" height=".66"/>
      <rect x="27.19" y="8.11" width=".94" height="1.08"/>
      <rect x="28.13" y="7.87" width=".3" height="1.57" rx=".12" ry=".12"/>
      <rect x=".3" y="8.11" width=".94" height="1.08" transform="translate(1.54 17.31) rotate(180)"/>
      <rect y="7.87" width=".3" height="1.57" rx=".12" ry=".12" transform="translate(.3 17.31) rotate(180)"/>
      <rect x="5.78" width="2.97" height="1.21" rx=".33" ry=".33"/>
      <rect x="12.99" width="2.97" height="1.21" rx=".33" ry=".33"/>
      <rect x="20.2" width="2.97" height="1.21" rx=".33" ry=".33"/>
      <g>
        <g>
          <path d="M34.81,9.3c.21-.4.62-.65,1.09-.65s.88.26,1.09.65h-2.18Z"/>
          <path d="M35.9,8.9c.19,0,.38.06.53.15h-1.06c.15-.1.34-.15.53-.15M35.9,8.4c-.71,0-1.29.49-1.45,1.15h2.89c-.15-.66-.74-1.15-1.45-1.15h0Z"/>
        </g>
        <g>
          <path d="M22.77,9.3c.21-.4.62-.65,1.09-.65s.88.26,1.09.65h-2.18Z"/>
          <path d="M23.86,8.9c.19,0,.38.06.53.15h-1.06c.15-.1.34-.15.53-.15M23.86,8.4c-.71,0-1.29.49-1.45,1.15h2.89c-.15-.66-.74-1.15-1.45-1.15h0Z"/>
        </g>
        <g>
          <path d="M19.5,9.3c.21-.4.62-.65,1.09-.65s.88.26,1.09.65h-2.18Z"/>
          <path d="M20.58,8.9c.19,0,.38.06.53.15h-1.06c.15-.1.34-.15.53-.15M20.58,8.4c-.71,0-1.29.49-1.45,1.15h2.89c-.15-.66-.74-1.15-1.45-1.15h0Z"/>
        </g>
        <g>
          <path d="M47.6,9.3c.21-.4.62-.65,1.09-.65s.88.26,1.09.65h-2.18Z"/>
          <path d="M48.69,8.9c.19,0,.38.06.53.15h-1.06c.15-.1.34-.15.53-.15M48.69,8.4c-.71,0-1.29.49-1.45,1.15h2.89c-.15-.66-.74-1.15-1.45-1.15h0Z"/>
        </g>
        <g>
          <path d="M6.7,9.3c.21-.4.62-.65,1.09-.65s.88.26,1.09.65h-2.18Z"/>
          <path d="M7.79,8.9c.19,0,.38.06.53.15h-1.06c.15-.1.34-.15.53-.15M7.79,8.4c-.71,0-1.29.49-1.45,1.15h2.89c-.15-.66-.74-1.15-1.45-1.15h0Z"/>
        </g>
        <g>
          <path d="M66.45,9.3c.21-.4.62-.65,1.09-.65s.88.26,1.09.65h-2.18Z"/>
          <path d="M67.54,8.9c.19,0,.38.06.53.15h-1.06c.15-.1.34-.15.53-.15M67.54,8.4c-.71,0-1.29.49-1.45,1.15h2.89c-.15-.66-.74-1.15-1.45-1.15h0Z"/>
        </g>
        <g>
          <path d="M80.89,9.3c.19-.44.63-.74,1.13-.74s.94.3,1.13.74h-2.26Z"/>
          <path d="M82.02,8.81c.25,0,.47.09.65.24h-1.29c.17-.15.4-.24.65-.24M82.02,8.31c-.74,0-1.34.54-1.46,1.24h2.92c-.12-.7-.72-1.24-1.46-1.24h0Z"/>
        </g>
        <g>
          <path d="M50.88,9.3c.21-.4.62-.65,1.09-.65s.88.26,1.09.65h-2.18Z"/>
          <path d="M51.97,8.9c.19,0,.38.06.53.15h-1.06c.15-.1.34-.15.53-.15M51.97,8.4c-.71,0-1.29.49-1.45,1.15h2.89c-.15-.66-.74-1.15-1.45-1.15h0Z"/>
        </g>
        <g>
          <path d="M75.57,9.3c.21-.4.62-.65,1.09-.65s.88.26,1.09.65h-2.18Z"/>
          <path d="M76.66,8.9c.19,0,.38.06.53.15h-1.06c.15-.1.34-.15.53-.15M76.66,8.4c-.71,0-1.29.49-1.45,1.15h2.89c-.15-.66-.74-1.15-1.45-1.15h0Z"/>
        </g>
        <g>
          <path d="M61.29,9.3c.21-.4.62-.65,1.09-.65s.88.26,1.09.65h-2.18Z"/>
          <path d="M62.38,8.9c.19,0,.38.06.53.15h-1.06c.15-.1.34-.15.53-.15M62.38,8.4c-.71,0-1.29.49-1.45,1.15h2.89c-.15-.66-.74-1.15-1.45-1.15h0Z"/>
        </g>
        <g>
          <path d="M3.43,9.3c.21-.4.62-.65,1.09-.65s.88.26,1.09.65h-2.18Z"/>
          <path d="M4.52,8.9c.19,0,.38.06.53.15h-1.06c.15-.1.34-.15.53-.15M4.52,8.4c-.71,0-1.29.49-1.45,1.15h2.89c-.15-.66-.74-1.15-1.45-1.15h0Z"/>
        </g>
        <g>
          <path d="M31.53,9.3c.21-.4.62-.65,1.09-.65s.88.26,1.09.65h-2.18Z"/>
          <path d="M32.62,8.9c.19,0,.38.06.53.15h-1.06c.15-.1.34-.15.53-.15M32.62,8.4c-.71,0-1.29.49-1.45,1.15h2.89c-.15-.66-.74-1.15-1.45-1.15h0Z"/>
        </g>
        <g>
          <path d="M48.69,11.12c-.48,0-.91-.28-1.11-.7h2.23c-.2.42-.63.7-1.11.7Z"/>
          <path d="M49.29,10.67c-.17.13-.37.2-.6.2s-.43-.07-.6-.2h1.19M50.15,10.17h-2.91c.13.68.73,1.2,1.46,1.2s1.32-.52,1.46-1.2h0Z"/>
        </g>
        <g>
          <path d="M67.54,11.12c-.48,0-.91-.28-1.11-.7h2.23c-.2.42-.63.7-1.11.7Z"/>
          <path d="M68.14,10.67c-.17.13-.37.2-.6.2s-.43-.07-.6-.2h1.19M69,10.17h-2.91c.13.68.73,1.2,1.46,1.2s1.32-.52,1.46-1.2h0Z"/>
        </g>
        <g>
          <path d="M51.97,11.12c-.48,0-.91-.28-1.11-.7h2.23c-.2.42-.63.7-1.11.7Z"/>
          <path d="M52.56,10.67c-.17.13-.37.2-.6.2s-.43-.07-.6-.2h1.19M53.43,10.17h-2.91c.13.68.73,1.2,1.46,1.2s1.32-.52,1.46-1.2h0Z"/>
        </g>
        <g>
          <path d="M62.38,11.12c-.48,0-.91-.28-1.11-.7h2.23c-.2.42-.63.7-1.11.7Z"/>
          <path d="M62.97,10.67c-.17.13-.37.2-.6.2s-.43-.07-.6-.2h1.19M63.83,10.17h-2.91c.13.68.73,1.2,1.46,1.2s1.32-.52,1.46-1.2h0Z"/>
        </g>
        <g>
          <path d="M82.02,11.03c-.44,0-.85-.24-1.06-.61h2.12c-.22.37-.62.61-1.06.61Z"/>
          <path d="M82.47,10.67c-.14.07-.29.11-.46.11s-.32-.04-.46-.11h.91M83.45,10.17h-2.87c.17.64.74,1.11,1.43,1.11s1.27-.47,1.43-1.11h0Z"/>
        </g>
        <g>
          <path d="M76.66,11.12c-.48,0-.91-.28-1.11-.7h2.23c-.2.42-.63.7-1.11.7Z"/>
          <path d="M77.26,10.67c-.17.13-.37.2-.6.2s-.43-.07-.6-.2h1.19M78.12,10.17h-2.91c.13.68.73,1.2,1.46,1.2s1.32-.52,1.46-1.2h0Z"/>
        </g>
        <g>
          <path d="M35.9,11.12c-.48,0-.91-.28-1.11-.7h2.23c-.2.42-.63.7-1.11.7Z"/>
          <path d="M36.49,10.67c-.17.13-.37.2-.6.2s-.43-.07-.6-.2h1.19M37.36,10.17h-2.91c.13.68.73,1.2,1.46,1.2s1.32-.52,1.46-1.2h0Z"/>
        </g>
        <g>
          <path d="M20.58,11.12c-.48,0-.91-.28-1.11-.7h2.23c-.2.42-.63.7-1.11.7Z"/>
          <path d="M21.18,10.67c-.17.13-.37.2-.6.2s-.43-.07-.6-.2h1.19M22.04,10.17h-2.91c.13.68.73,1.2,1.46,1.2s1.32-.52,1.46-1.2h0Z"/>
        </g>
        <g>
          <path d="M7.79,11.12c-.48,0-.91-.28-1.11-.7h2.23c-.2.42-.63.7-1.11.7Z"/>
          <path d="M8.39,10.67c-.17.13-.37.2-.6.2s-.43-.07-.6-.2h1.19M9.25,10.17h-2.91c.13.68.73,1.2,1.46,1.2s1.32-.52,1.46-1.2h0Z"/>
        </g>
        <g>
          <path d="M23.86,11.12c-.48,0-.91-.28-1.11-.7h2.23c-.2.42-.63.7-1.11.7Z"/>
          <path d="M24.46,10.67c-.17.13-.37.2-.6.2s-.43-.07-.6-.2h1.19M25.32,10.17h-2.91c.13.68.73,1.2,1.46,1.2s1.32-.52,1.46-1.2h0Z"/>
        </g>
        <g>
          <path d="M4.52,11.12c-.48,0-.91-.28-1.11-.7h2.23c-.2.42-.63.7-1.11.7Z"/>
          <path d="M5.11,10.67c-.17.13-.37.2-.6.2s-.43-.07-.6-.2h1.19M5.97,10.17h-2.91c.13.68.73,1.2,1.46,1.2s1.32-.52,1.46-1.2h0Z"/>
        </g>
        <g>
          <path d="M32.62,11.12c-.48,0-.91-.28-1.11-.7h2.23c-.2.42-.63.7-1.11.7Z"/>
          <path d="M33.22,10.67c-.17.13-.37.2-.6.2s-.43-.07-.6-.2h1.19M34.08,10.17h-2.91c.13.68.73,1.2,1.46,1.2s1.32-.52,1.46-1.2h0Z"/>
        </g>
      </g>
    </g>
  </g>
</svg>