<?xml version="1.0" encoding="UTF-8"?>
<svg id="_Слой_2" data-name="Слой 2" xmlns="http://www.w3.org/2000/svg" viewBox="0 0 49.85 17.41">
  <g id="_Слой_2-2" data-name="Слой 2">
    <g>
      <path d="M.54,10.98C.24,10.98,0,11.22,0,11.52v1.39C0,13.21.24,13.45.54,13.45h5.99c.17,0,.32-.09.42-.24.56-.85,1.52-1.42,2.61-1.42s2.05.57,2.61,1.42c.09.14.25.24.42.24h1.15c.17,0,.32-.09.42-.24.56-.85,1.52-1.42,2.61-1.42s2.05.57,2.61,1.42c.09.14.25.24.42.24h12.84c.17,0,.32-.09.42-.24.56-.85,1.52-1.42,2.61-1.42s2.05.57,2.61,1.42c.09.14.25.24.42.24h1.97c.17,0,.32-.09.42-.24.56-.85,1.52-1.42,2.61-1.42,1.52,0,2.78,1.08,3.07,2.52.05.23.23.4.46.4h1.61c.55,0,1-.45,1-1v-2.73H.54Z"/>
      <path d="M35.68,13.48c.81,0,1.46.66,1.46,1.46s-.66,1.46-1.46,1.46-1.46-.66-1.46-1.46.66-1.46,1.46-1.46M35.68,12.48c-1.36,0-2.46,1.1-2.46,2.46s1.1,2.46,2.46,2.46,2.46-1.1,2.46-2.46-1.1-2.46-2.46-2.46h0Z"/>
      <path d="M43.71,13.48c.81,0,1.46.66,1.46,1.46s-.66,1.46-1.46,1.46-1.46-.66-1.46-1.46.66-1.46,1.46-1.46M43.71,12.48c-1.36,0-2.46,1.1-2.46,2.46s1.1,2.46,2.46,2.46,2.46-1.1,2.46-2.46-1.1-2.46-2.46-2.46h0Z"/>
      <path d="M9.56,13.48c.81,0,1.46.66,1.46,1.46s-.66,1.46-1.46,1.46-1.46-.66-1.46-1.46.66-1.46,1.46-1.46M9.56,12.48c-1.36,0-2.46,1.1-2.46,2.46s1.1,2.46,2.46,2.46,2.46-1.1,2.46-2.46-1.1-2.46-2.46-2.46h0Z"/>
      <path d="M16.77,13.48c.81,0,1.46.66,1.46,1.46s-.66,1.46-1.46,1.46-1.46-.66-1.46-1.46.66-1.46,1.46-1.46M16.77,12.48c-1.36,0-2.46,1.1-2.46,2.46s1.1,2.46,2.46,2.46,2.46-1.1,2.46-2.46-1.1-2.46-2.46-2.46h0Z"/>
      <rect y="8.31" width="40.31" height="1.94" rx=".5" ry=".5"/>
      <rect y="1.42" width="40.31" height="6.9" rx="2.1" ry="2.1"/>
      <rect x="1.44" y="11.8" width="4.17" height="2.92" rx=".5" ry=".5"/>
      <rect x="21.87" y="11.6" width="8.7" height="3.11" rx=".52" ry=".52"/>
      <path d="M49.66,7.1l-2.24-4.76c-.16-.35-.52-.58-.91-.58h-4.45c-.55,0-1,.45-1,1v8.22h8.78v-3.04c0-.29-.06-.58-.19-.85ZM47.68,7.17l-3.39-.47c-.25-.03-.43-.25-.43-.5v-2.25c0-.28.22-.5.5-.5h2.1c.19,0,.37.11.45.28l1.29,2.72c.17.36-.13.76-.52.71Z"/>
      <path d="M6.23,0h2.96c.28,0,.5.22.5.5v.92h-3.96v-.92c0-.28.22-.5.5-.5Z"/>
      <path d="M18.79,0h2.96c.28,0,.5.22.5.5v.92h-3.96v-.92c0-.28.22-.5.5-.5Z"/>
      <path d="M31.34,0h2.96c.28,0,.5.22.5.5v.92h-3.96v-.92c0-.28.22-.5.5-.5Z"/>
    </g>
  </g>
</svg>