<?xml version="1.0" encoding="UTF-8"?>
<svg id="_Слой_2" data-name="Слой 2" xmlns="http://www.w3.org/2000/svg" viewBox="0 0 206 56">
  <defs>
    <style>
      .cls-1 {
        fill: #0f52ba;
      }
    </style>
  </defs>
  <g id="_Слой_1-2" data-name="Слой 1">
    <g>
      <path class="cls-1" d="M140.94,37.49c-.47,0-.91.1-1.3.29-.39.19-.7.49-.93.88-.23.4-.34.89-.34,1.48v1.1c0,.6.11,1.12.34,1.56.23.43.54.76.93.98.39.22.83.33,1.3.33h0c.68,0,1.24-.27,1.69-.81.44-.54.67-1.34.67-2.38v-.44c0-1-.22-1.75-.64-2.24-.43-.49-1-.74-1.71-.74Z"/>
      <path class="cls-1" d="M76.4,38.15c-.77,0-1.36.24-1.81.72-.45.48-.68,1.16-.68,2.04v.35c0,.56.11,1.06.32,1.49.21.43.51.76.89.99.38.23.8.34,1.28.34h0c.8,0,1.41-.25,1.84-.75.43-.5.64-1.16.64-1.99v-.44c0-.88-.22-1.56-.67-2.04-.44-.48-1.05-.72-1.82-.72Z"/>
      <path class="cls-1" d="M128.93,37.55c-.36-.12-.77-.18-1.21-.18-.41,0-.81.07-1.18.2-.37.13-.67.35-.9.65-.23.3-.36.71-.39,1.22h4.89c0-.54-.11-.97-.33-1.27-.22-.3-.52-.51-.88-.63Z"/>
      <path class="cls-1" d="M135.73,16.02c-.38-.25-.83-.38-1.34-.38s-.98.13-1.35.38c-.37.25-.65.6-.85,1.05-.19.45-.29.96-.29,1.53v.44c0,.66.1,1.23.29,1.72.19.49.47.85.85,1.09.37.24.82.36,1.35.36h0c.52,0,.97-.12,1.34-.37.38-.25.66-.62.86-1.1.19-.49.29-1.05.29-1.7v-.44c0-.57-.1-1.08-.29-1.53-.19-.45-.48-.8-.86-1.05Z"/>
      <path class="cls-1" d="M45.18,55.09c.29-1.12.44-2.27.44-3.43,0-2.89-.91-5.67-2.69-8.26-1.64-2.38-3.96-4.51-6.89-6.31-5.8-3.56-13.46-5.53-21.56-5.53-4.76,0-9.36.68-13.52,1.95-.47.15-.96-.21-.96-.7v7.71c0-.82.53-1.55,1.31-1.82,3.96-1.37,8.46-2.1,13.16-2.1,7.18,0,13.89,1.7,18.89,4.77,4.63,2.84,7.18,6.5,7.18,10.29,0,1.04-.19,2.07-.57,3.08-.28.76-1.01,1.27-1.82,1.27h7.75c-.48,0-.84-.45-.72-.91Z"/>
      <path class="cls-1" d="M1.2,0H0v1.19C0,.53.54,0,1.2,0Z"/>
      <path class="cls-1" d="M21.47,54.98c-.84-5.43-8.28-9.67-17.33-9.67-.96,0-1.9.05-2.82.14-.71.07-1.32-.48-1.32-1.19v11.74h22.65c-.6,0-1.1-.43-1.19-1.02Z"/>
      <path class="cls-1" d="M92.62,15.63c-.47,0-.91.1-1.3.29-.39.19-.7.49-.93.88-.23.4-.34.89-.34,1.48v1.1c0,.6.11,1.12.34,1.55.23.43.54.76.93.98.39.22.83.33,1.3.33h0c.68,0,1.24-.27,1.69-.81.44-.54.67-1.34.67-2.38v-.44c0-1-.22-1.75-.64-2.24-.43-.49-1-.74-1.71-.74Z"/>
      <path class="cls-1" d="M55.2,0c.66,0,1.2.53,1.2,1.19v18.89c0,.52-.54.88-1.03.68-8.03-3.3-17.4-5.07-27.17-5.07s-19.14,1.77-27.18,5.07c-.49.2-1.03-.15-1.03-.68v7.88c0-.76.44-1.44,1.14-1.75,7.57-3.44,16.93-5.48,27.07-5.48s19.5,2.03,27.07,5.48c.69.31,1.14,1,1.14,1.75v26.84h0c0,.66-.54,1.19-1.2,1.19h150.8V0H55.2ZM199.08,8.54c0,.52.08.86.23,1.05.16.18.4.28.74.28.31,0,.55-.09.72-.28.17-.18.26-.53.26-1.05h3.02c0,1.1-.3,1.94-.91,2.5-.61.57-1.64.85-3.09.85s-2.48-.28-3.09-.85c-.61-.57-.91-1.4-.91-2.5h3.02ZM113.17,13.08h4.15l2.8,5.8,2.8-5.8h4.02v11.69h-3.24v-7.17l-2.53,4.96h-2.22l-2.53-4.96v7.17h-3.24v-11.69ZM99.95,13.08h3.33v7.06l5-7.06h3v11.69h-3.33v-7.06l-5,7.06h-3v-11.69ZM71.18,9.34h13.55v15.44h-4v-12.18h-5.55v12.18h-4v-15.44ZM82.4,41.04c0,1.25-.27,2.32-.8,3.2-.53.88-1.25,1.55-2.15,2.02-.9.46-1.92.69-3.04.69h0c-1.14,0-2.17-.26-3.08-.77-.91-.51-1.63-1.28-2.14-2.28-.52-1.01-.78-2.26-.78-3.76v-.44c0-1.75.2-3.25.6-4.5.4-1.25,1.06-2.22,1.98-2.9.92-.68,2.15-1.06,3.71-1.14.62-.03,1.24-.05,1.87-.07.62-.01,1.19-.06,1.7-.12.51-.07.93-.17,1.26-.32v2.91c-.15.09-.4.17-.74.24-.35.07-.82.13-1.42.17-.6.04-1.37.07-2.32.1-.86,0-1.56.12-2.11.36-.55.24-.97.62-1.26,1.14-.29.52-.48,1.2-.59,2.05.22-.4.52-.75.9-1.06.38-.31.85-.56,1.42-.74.57-.18,1.24-.28,2.01-.28.98,0,1.85.19,2.61.57.76.38,1.35.95,1.77,1.69.41.74.62,1.69.62,2.83v.4ZM90.91,46.64c-.44,1.1-.87,2-1.27,2.7-.4.7-.9,1.21-1.5,1.53-.6.32-1.4.49-2.41.49h0c-.22,0-.44-.02-.67-.07v-2.87c.22.04.44.07.67.07.31,0,.56-.06.74-.18.19-.12.36-.32.51-.6.16-.28.32-.65.5-1.1l-4.98-11.67h3.78l2.93,7.79,2.78-7.79h3.4l-4.49,11.69ZM93.46,25.09c-.68,0-1.32-.15-1.92-.45-.6-.3-1.1-.75-1.5-1.33v5.89h-3.42V13.09h3.15v1.59c.31-.47.77-.9,1.39-1.3.61-.4,1.38-.6,2.3-.6,1.66,0,2.91.49,3.77,1.47.85.98,1.28,2.43,1.28,4.36v.44c0,1.32-.21,2.43-.62,3.33-.41.9-1,1.57-1.74,2.03-.75.46-1.64.68-2.68.68ZM108.17,46.64h-3.42v-4.57h-4.49v4.57h-3.42v-11.69h3.42v4.35h4.49v-4.35h3.42v11.69ZM117.57,46.64l-3.2-4.63h-.89v4.63h-3.42v-11.69h3.42v4.41h.89l3.29-4.41h3.73l-4.33,5.49,4.55,6.2h-4.04ZM133.49,41.7h-8.26c.03.57.17,1.05.41,1.43.24.38.56.66.94.83.39.17.8.25,1.24.25.64,0,1.15-.1,1.53-.3s.64-.47.76-.81h3.16c-.24,1.28-.82,2.24-1.76,2.88-.93.64-2.16.96-3.69.96h0c-1.15,0-2.19-.22-3.11-.66-.92-.44-1.65-1.11-2.19-2.01-.54-.9-.81-2.02-.81-3.37v-.44c0-1.29.26-2.37.78-3.22.52-.85,1.23-1.5,2.12-1.94.9-.44,1.89-.66,2.99-.66,1.94,0,3.41.5,4.4,1.51.99,1.01,1.49,2.45,1.49,4.31v1.23ZM134.39,25.08c-1.1,0-2.1-.22-3.02-.66-.92-.44-1.64-1.11-2.18-2.01-.53-.9-.8-2.02-.8-3.38v-.44c0-1.26.27-2.32.8-3.18.53-.85,1.26-1.51,2.18-1.96.92-.46,1.92-.68,3.02-.68s2.12.23,3.03.68c.91.46,1.63,1.11,2.17,1.96.53.85.8,1.91.8,3.18v.44c0,1.34-.27,2.45-.8,3.34-.53.89-1.26,1.56-2.17,2.02-.91.46-1.92.68-3.03.68h0ZM146.83,40.91c0,1.32-.21,2.43-.62,3.33-.41.9-1,1.57-1.74,2.03-.75.46-1.64.68-2.68.68-.68,0-1.32-.15-1.92-.45-.6-.3-1.1-.75-1.5-1.33v5.89h-3.42v-16.1h3.16v1.59c.31-.47.77-.9,1.39-1.3.61-.4,1.38-.6,2.3-.6,1.66,0,2.92.49,3.77,1.47.85.98,1.28,2.43,1.28,4.36v.44ZM153.71,19.04c0,1.32-.21,2.43-.62,3.33-.41.9-1,1.57-1.74,2.03-.75.46-1.64.68-2.68.68-.68,0-1.32-.15-1.92-.45-.6-.3-1.1-.75-1.5-1.33v5.89h-3.42V13.08h3.15v1.59c.31-.47.77-.9,1.39-1.3.61-.4,1.38-.6,2.3-.6,1.66,0,2.91.49,3.77,1.47.85.98,1.28,2.43,1.28,4.36v.44ZM158.98,20.83c.21.47.5.82.87,1.04.37.22.81.33,1.31.33.53,0,.98-.14,1.33-.41.36-.27.58-.67.69-1.2h3.55c-.08.91-.35,1.71-.82,2.38-.47.68-1.12,1.2-1.92,1.57-.81.37-1.75.55-2.83.55h0c-1.16,0-2.18-.22-3.09-.67-.9-.45-1.61-1.12-2.13-2.02-.52-.9-.78-2.01-.78-3.35v-.44c0-1.23.27-2.29.81-3.15.54-.87,1.27-1.53,2.18-1.99.91-.46,1.91-.68,3.01-.68,1.18,0,2.18.21,2.98.62s1.41.96,1.84,1.63c.43.68.68,1.43.76,2.25h-3.55c-.1-.51-.32-.92-.63-1.2-.32-.29-.78-.43-1.39-.43-.46,0-.88.11-1.27.32-.39.21-.69.54-.9.97-.22.43-.32.99-.32,1.67v.44c0,.72.1,1.32.31,1.79ZM175.68,24.77l-3.2-4.63h-.89v4.63h-3.42v-11.69h3.42v4.41h.89l3.29-4.41h3.73l-4.33,5.49,4.55,6.2h-4.04ZM192.5,24.77h-3.33v-7.06l-5,7.06h-3v-11.69h3.33v7.06l5-7.06h3v11.69ZM205.72,24.77h-3.33v-7.06l-5,7.06h-3v-11.69h3.33v7.06l5-7.06h3v11.69Z"/>
      <path class="cls-1" d="M147.83,15.62c-.47,0-.91.1-1.3.29-.39.19-.7.49-.93.88-.23.4-.34.89-.34,1.48v1.1c0,.6.12,1.12.34,1.55.23.43.54.76.93.98.39.22.83.33,1.3.33h0c.68,0,1.24-.27,1.69-.81.44-.54.67-1.34.67-2.38v-.44c0-1-.22-1.75-.64-2.24-.43-.49-1-.74-1.71-.74Z"/>
    </g>
  </g>
</svg>