<svg width="1792" height="488" viewBox="0 0 1792 488" fill="none" xmlns="http://www.w3.org/2000/svg">
<path d="M197.332 487.808H332.331C339.431 487.808 345.76 483.401 348.225 476.783C351.493 468.019 353.179 459.043 353.179 449.978C353.179 416.97 330.98 385.148 290.667 360.384C247.045 333.587 188.594 318.823 126.082 318.823C85.0972 318.823 45.865 325.172 11.4069 337.099C4.58568 339.465 0 345.823 0 352.986V385.547C0 391.685 5.33085 396.506 11.4888 395.888C19.4728 395.083 27.6697 394.661 36.0304 394.661C114.896 394.661 179.701 431.653 186.989 478.93C187.775 484.027 192.148 487.808 197.34 487.808H197.332Z" fill="#0F52BA"/>
<path d="M197.332 487.808H332.331C339.431 487.808 345.76 483.401 348.225 476.783C351.493 468.019 353.179 459.043 353.179 449.978C353.179 416.97 330.98 385.148 290.667 360.384C247.045 333.587 188.594 318.823 126.082 318.823C85.0972 318.823 45.865 325.172 11.4069 337.099C4.58568 339.465 0 345.823 0 352.986V385.547C0 391.685 5.33085 396.506 11.4888 395.888C19.4728 395.083 27.6697 394.661 36.0304 394.661C114.896 394.661 179.701 431.653 186.989 478.93C187.775 484.027 192.148 487.808 197.34 487.808H197.332Z" fill="white" fill-opacity="0.2"/>
<path d="M245.662 136.692C330.767 136.692 412.425 152.107 482.381 180.814C486.639 182.562 491.323 179.481 491.323 174.912V10.3903C491.323 4.65044 486.639 0 480.858 0H10.4652C4.68395 0 0 4.65044 0 10.3903V174.904C0 179.481 4.68395 182.554 8.94208 180.814C78.9065 152.107 160.556 136.692 245.662 136.692Z" fill="#0F52BA"/>
<path d="M245.662 136.692C330.767 136.692 412.425 152.107 482.381 180.814C486.639 182.562 491.323 179.481 491.323 174.912V10.3903C491.323 4.65044 486.639 0 480.858 0H10.4652C4.68395 0 0 4.65044 0 10.3903V174.904C0 179.481 4.68395 182.554 8.94208 180.814C78.9065 152.107 160.556 136.692 245.662 136.692Z" fill="white" fill-opacity="0.2"/>
<path d="M491.323 477.42V243.59C491.323 237.012 487.45 231.045 481.423 228.305C415.512 198.329 333.961 180.605 245.662 180.605C157.363 180.605 75.803 198.329 9.90016 228.305C3.87326 231.037 0 237.004 0 243.582V285.818C0 290.11 4.18443 293.216 8.31974 291.948C44.5794 280.818 84.655 274.931 126.082 274.931C196.701 274.931 263.415 292.021 313.931 323.062C339.455 338.745 359.657 357.233 373.954 378.005C389.513 400.599 397.399 424.818 397.399 449.989C397.399 460.12 396.113 470.087 393.574 479.859C392.526 483.892 395.654 487.811 399.855 487.811H480.866C486.647 487.811 491.331 483.16 491.331 477.42H491.323Z" fill="#0F52BA"/>
<path d="M491.323 477.42V243.59C491.323 237.012 487.45 231.045 481.423 228.305C415.512 198.329 333.961 180.605 245.662 180.605C157.363 180.605 75.803 198.329 9.90016 228.305C3.87326 231.037 0 237.004 0 243.582V285.818C0 290.11 4.18443 293.216 8.31974 291.948C44.5794 280.818 84.655 274.931 126.082 274.931C196.701 274.931 263.415 292.021 313.931 323.062C339.455 338.745 359.657 357.233 373.954 378.005C389.513 400.599 397.399 424.818 397.399 449.989C397.399 460.12 396.113 470.087 393.574 479.859C392.526 483.892 395.654 487.811 399.855 487.811H480.866C486.647 487.811 491.331 483.16 491.331 477.42H491.323Z" fill="white" fill-opacity="0.2"/>
<path d="M620.052 215.864V81.3667H738.1V215.864H703.265V109.806H654.886V215.864H620.052Z" fill="#0F52BA"/>
<path d="M620.052 215.864V81.3667H738.1V215.864H703.265V109.806H654.886V215.864H620.052Z" fill="white" fill-opacity="0.2"/>
<path d="M754.54 254.288V114.027H782.021V127.864C784.731 123.767 788.76 119.986 794.116 116.531C799.471 113.075 806.145 111.344 814.145 111.344C828.59 111.344 839.53 115.604 846.949 124.124C854.368 132.645 858.078 145.295 858.078 162.068V165.913C858.078 177.442 856.268 187.117 852.657 194.93C849.046 202.743 843.977 208.637 837.467 212.605C830.949 216.572 823.178 218.564 814.145 218.564C808.209 218.564 802.632 217.247 797.408 214.629C792.183 212.003 787.827 208.133 784.347 203.003V254.304H754.548L754.54 254.288ZM806.792 193.767C812.721 193.767 817.626 191.401 821.499 186.661C825.372 181.921 827.305 175.003 827.305 165.913V162.068C827.305 153.36 825.429 146.856 821.695 142.563C817.953 138.271 812.991 136.124 806.792 136.124C802.665 136.124 798.89 136.962 795.467 138.62C792.044 140.287 789.342 142.848 787.336 146.303C785.337 149.759 784.338 154.051 784.338 159.173V168.783C784.338 174.035 785.337 178.556 787.336 182.328C789.334 186.108 792.044 188.954 795.467 190.881C798.882 192.8 802.657 193.759 806.792 193.759V193.767Z" fill="#0F52BA"/>
<path d="M754.54 254.288V114.027H782.021V127.864C784.731 123.767 788.76 119.986 794.116 116.531C799.471 113.075 806.145 111.344 814.145 111.344C828.59 111.344 839.53 115.604 846.949 124.124C854.368 132.645 858.078 145.295 858.078 162.068V165.913C858.078 177.442 856.268 187.117 852.657 194.93C849.046 202.743 843.977 208.637 837.467 212.605C830.949 216.572 823.178 218.564 814.145 218.564C808.209 218.564 802.632 217.247 797.408 214.629C792.183 212.003 787.827 208.133 784.347 203.003V254.304H754.548L754.54 254.288ZM806.792 193.767C812.721 193.767 817.626 191.401 821.499 186.661C825.372 181.921 827.305 175.003 827.305 165.913V162.068C827.305 153.36 825.429 146.856 821.695 142.563C817.953 138.271 812.991 136.124 806.792 136.124C802.665 136.124 798.89 136.962 795.467 138.62C792.044 140.287 789.342 142.848 787.336 146.303C785.337 149.759 784.338 154.051 784.338 159.173V168.783C784.338 174.035 785.337 178.556 787.336 182.328C789.334 186.108 792.044 188.954 795.467 190.881C798.882 192.8 802.657 193.759 806.792 193.759V193.767Z" fill="white" fill-opacity="0.2"/>
<path d="M870.674 215.803V113.973H899.703V175.453L943.242 113.973H969.365V215.803H940.336V154.323L896.796 215.803H870.674Z" fill="#0F52BA"/>
<path d="M870.674 215.803V113.973H899.703V175.453L943.242 113.973H969.365V215.803H940.336V154.323L896.796 215.803H870.674Z" fill="white" fill-opacity="0.2"/>
<path d="M985.812 215.803V113.973H1022L1046.38 164.501L1070.77 113.973H1105.8V215.803H1077.55V153.355L1055.49 196.583H1036.14L1014.08 153.355V215.803H985.828H985.812Z" fill="#0F52BA"/>
<path d="M985.812 215.803V113.973H1022L1046.38 164.501L1070.77 113.973H1105.8V215.803H1077.55V153.355L1055.49 196.583H1036.14L1014.08 153.355V215.803H985.828H985.812Z" fill="white" fill-opacity="0.2"/>
<path d="M1170.62 218.488C1161.07 218.488 1152.3 216.569 1144.3 212.724C1136.3 208.878 1129.98 203.057 1125.33 195.236C1120.69 187.423 1118.36 177.626 1118.36 165.837V161.991C1118.36 150.975 1120.69 141.756 1125.33 134.325C1129.98 126.894 1136.3 121.194 1144.3 117.227C1152.3 113.259 1161.07 111.268 1170.62 111.268C1180.16 111.268 1189.1 113.251 1197.03 117.227C1204.97 121.203 1211.26 126.902 1215.9 134.325C1220.54 141.756 1222.87 150.975 1222.87 161.991V165.837C1222.87 177.496 1220.54 187.195 1215.9 194.943C1211.26 202.691 1204.97 208.553 1197.03 212.52C1189.1 216.488 1180.3 218.48 1170.62 218.48V218.488ZM1170.62 193.512C1175.13 193.512 1179.03 192.423 1182.33 190.244C1185.62 188.065 1188.1 184.862 1189.78 180.634C1191.46 176.406 1192.29 171.479 1192.29 165.837V161.991C1192.29 157 1191.45 152.544 1189.78 148.642C1188.1 144.739 1185.62 141.699 1182.33 139.512C1179.03 137.333 1175.14 136.243 1170.62 136.243C1166.1 136.243 1162.03 137.333 1158.81 139.512C1155.58 141.691 1153.13 144.731 1151.45 148.642C1149.78 152.552 1148.94 157 1148.94 161.991V165.837C1148.94 171.601 1149.78 176.593 1151.45 180.821C1153.13 185.049 1155.58 188.219 1158.81 190.333C1162.03 192.447 1165.97 193.504 1170.62 193.504V193.512Z" fill="#0F52BA"/>
<path d="M1170.62 218.488C1161.07 218.488 1152.3 216.569 1144.3 212.724C1136.3 208.878 1129.98 203.057 1125.33 195.236C1120.69 187.423 1118.36 177.626 1118.36 165.837V161.991C1118.36 150.975 1120.69 141.756 1125.33 134.325C1129.98 126.894 1136.3 121.194 1144.3 117.227C1152.3 113.259 1161.07 111.268 1170.62 111.268C1180.16 111.268 1189.1 113.251 1197.03 117.227C1204.97 121.203 1211.26 126.902 1215.9 134.325C1220.54 141.756 1222.87 150.975 1222.87 161.991V165.837C1222.87 177.496 1220.54 187.195 1215.9 194.943C1211.26 202.691 1204.97 208.553 1197.03 212.52C1189.1 216.488 1180.3 218.48 1170.62 218.48V218.488ZM1170.62 193.512C1175.13 193.512 1179.03 192.423 1182.33 190.244C1185.62 188.065 1188.1 184.862 1189.78 180.634C1191.46 176.406 1192.29 171.479 1192.29 165.837V161.991C1192.29 157 1191.45 152.544 1189.78 148.642C1188.1 144.739 1185.62 141.699 1182.33 139.512C1179.03 137.333 1175.14 136.243 1170.62 136.243C1166.1 136.243 1162.03 137.333 1158.81 139.512C1155.58 141.691 1153.13 144.731 1151.45 148.642C1149.78 152.552 1148.94 157 1148.94 161.991V165.837C1148.94 171.601 1149.78 176.593 1151.45 180.821C1153.13 185.049 1155.58 188.219 1158.81 190.333C1162.03 192.447 1165.97 193.504 1170.62 193.504V193.512Z" fill="white" fill-opacity="0.2"/>
<path d="M1235.45 254.229V113.968H1262.93V127.805C1265.64 123.708 1269.67 119.927 1275.02 116.472C1280.38 113.016 1287.05 111.285 1295.05 111.285C1309.5 111.285 1320.44 115.545 1327.86 124.065C1335.28 132.586 1338.99 145.236 1338.99 162.009V165.854C1338.99 177.383 1337.18 187.058 1333.56 194.871C1329.95 202.684 1324.88 208.578 1318.37 212.545C1311.86 216.513 1304.08 218.505 1295.05 218.505C1289.12 218.505 1283.54 217.188 1278.31 214.57C1273.09 211.944 1268.73 208.074 1265.25 202.944V254.245H1235.46L1235.45 254.229ZM1287.7 193.7C1293.63 193.7 1298.53 191.334 1302.41 186.594C1306.28 181.854 1308.21 174.935 1308.21 165.846V162C1308.21 153.293 1306.34 146.789 1302.6 142.496C1298.86 138.204 1293.9 136.057 1287.7 136.057C1283.57 136.057 1279.8 136.895 1276.37 138.553C1272.95 140.22 1270.25 142.781 1268.24 146.236C1266.24 149.691 1265.25 153.984 1265.25 159.106V168.716C1265.25 173.968 1266.24 178.488 1268.24 182.261C1270.24 186.041 1272.95 188.887 1276.37 190.814C1279.79 192.732 1283.56 193.692 1287.7 193.692V193.7Z" fill="#0F52BA"/>
<path d="M1235.45 254.229V113.968H1262.93V127.805C1265.64 123.708 1269.67 119.927 1275.02 116.472C1280.38 113.016 1287.05 111.285 1295.05 111.285C1309.5 111.285 1320.44 115.545 1327.86 124.065C1335.28 132.586 1338.99 145.236 1338.99 162.009V165.854C1338.99 177.383 1337.18 187.058 1333.56 194.871C1329.95 202.684 1324.88 208.578 1318.37 212.545C1311.86 216.513 1304.08 218.505 1295.05 218.505C1289.12 218.505 1283.54 217.188 1278.31 214.57C1273.09 211.944 1268.73 208.074 1265.25 202.944V254.245H1235.46L1235.45 254.229ZM1287.7 193.7C1293.63 193.7 1298.53 191.334 1302.41 186.594C1306.28 181.854 1308.21 174.935 1308.21 165.846V162C1308.21 153.293 1306.34 146.789 1302.6 142.496C1298.86 138.204 1293.9 136.057 1287.7 136.057C1283.57 136.057 1279.8 136.895 1276.37 138.553C1272.95 140.22 1270.25 142.781 1268.24 146.236C1266.24 149.691 1265.25 153.984 1265.25 159.106V168.716C1265.25 173.968 1266.24 178.488 1268.24 182.261C1270.24 186.041 1272.95 188.887 1276.37 190.814C1279.79 192.732 1283.56 193.692 1287.7 193.692V193.7Z" fill="white" fill-opacity="0.2"/>
<path d="M1403.81 218.489C1393.74 218.489 1384.78 216.538 1376.91 212.628C1369.04 208.725 1362.85 202.863 1358.33 195.05C1353.81 187.237 1351.56 177.505 1351.56 165.847V162.001C1351.56 151.245 1353.91 142.082 1358.62 134.53C1363.33 126.977 1369.65 121.212 1377.59 117.237C1385.52 113.269 1394.26 111.277 1403.81 111.277C1414.13 111.277 1422.77 113.074 1429.74 116.66C1436.71 120.245 1442.06 124.985 1445.81 130.879C1449.55 136.773 1451.74 143.302 1452.38 150.481H1421.42C1420.52 146.001 1418.68 142.505 1415.9 140.009C1413.13 137.513 1409.1 136.261 1403.81 136.261C1399.8 136.261 1396.13 137.188 1392.78 139.05C1389.42 140.912 1386.81 143.725 1384.94 147.505C1383.07 151.286 1382.13 156.123 1382.13 162.009V165.855C1382.13 172.131 1383.03 177.318 1384.84 181.416C1386.64 185.514 1389.17 188.522 1392.39 190.449C1395.62 192.367 1399.43 193.327 1403.81 193.327C1408.45 193.327 1412.32 192.148 1415.42 189.774C1418.51 187.408 1420.51 183.912 1421.42 179.302H1452.38C1451.74 187.245 1449.35 194.164 1445.23 200.05C1441.1 205.945 1435.51 210.489 1428.49 213.693C1421.45 216.896 1413.23 218.498 1403.82 218.498L1403.81 218.489Z" fill="#0F52BA"/>
<path d="M1403.81 218.489C1393.74 218.489 1384.78 216.538 1376.91 212.628C1369.04 208.725 1362.85 202.863 1358.33 195.05C1353.81 187.237 1351.56 177.505 1351.56 165.847V162.001C1351.56 151.245 1353.91 142.082 1358.62 134.53C1363.33 126.977 1369.65 121.212 1377.59 117.237C1385.52 113.269 1394.26 111.277 1403.81 111.277C1414.13 111.277 1422.77 113.074 1429.74 116.66C1436.71 120.245 1442.06 124.985 1445.81 130.879C1449.55 136.773 1451.74 143.302 1452.38 150.481H1421.42C1420.52 146.001 1418.68 142.505 1415.9 140.009C1413.13 137.513 1409.1 136.261 1403.81 136.261C1399.8 136.261 1396.13 137.188 1392.78 139.05C1389.42 140.912 1386.81 143.725 1384.94 147.505C1383.07 151.286 1382.13 156.123 1382.13 162.009V165.855C1382.13 172.131 1383.03 177.318 1384.84 181.416C1386.64 185.514 1389.17 188.522 1392.39 190.449C1395.62 192.367 1399.43 193.327 1403.81 193.327C1408.45 193.327 1412.32 192.148 1415.42 189.774C1418.51 187.408 1420.51 183.912 1421.42 179.302H1452.38C1451.74 187.245 1449.35 194.164 1445.23 200.05C1441.1 205.945 1435.51 210.489 1428.49 213.693C1421.45 216.896 1413.23 218.498 1403.82 218.498L1403.81 218.489Z" fill="white" fill-opacity="0.2"/>
<path d="M1464.96 215.803V113.973H1494.76V152.396H1502.5L1531.14 113.973H1563.65L1525.92 161.819L1565.59 215.811H1530.37L1502.5 175.461H1494.77V215.811H1464.97L1464.96 215.803Z" fill="#0F52BA"/>
<path d="M1464.96 215.803V113.973H1494.76V152.396H1502.5L1531.14 113.973H1563.65L1525.92 161.819L1565.59 215.811H1530.37L1502.5 175.461H1494.77V215.811H1464.97L1464.96 215.803Z" fill="white" fill-opacity="0.2"/>
<path d="M1578.17 215.803V113.973H1607.2V175.453L1650.74 113.973H1676.86V215.803H1647.83V154.323L1604.29 215.803H1578.17Z" fill="#0F52BA"/>
<path d="M1578.17 215.803V113.973H1607.2V175.453L1650.74 113.973H1676.86V215.803H1647.83V154.323L1604.29 215.803H1578.17Z" fill="white" fill-opacity="0.2"/>
<path d="M1693.31 215.798V113.968H1722.34V175.448L1765.88 113.968H1792V215.798H1762.97V154.318L1719.43 215.798H1693.31ZM1742.65 103.594C1730.01 103.594 1721.04 101.131 1715.75 96.1956C1710.47 91.2688 1707.82 83.9923 1707.82 74.3906H1734.14C1734.14 78.8785 1734.82 81.9191 1736.17 83.5208C1737.52 85.1224 1739.68 85.9192 1742.65 85.9192C1745.37 85.9192 1747.46 85.1224 1748.94 83.5208C1750.43 81.9191 1751.17 78.8785 1751.17 74.3906H1777.49C1777.49 84.0004 1774.84 91.2688 1769.55 96.1956C1764.26 101.131 1755.3 103.594 1742.65 103.594Z" fill="#0F52BA"/>
<path d="M1693.31 215.798V113.968H1722.34V175.448L1765.88 113.968H1792V215.798H1762.97V154.318L1719.43 215.798H1693.31ZM1742.65 103.594C1730.01 103.594 1721.04 101.131 1715.75 96.1956C1710.47 91.2688 1707.82 83.9923 1707.82 74.3906H1734.14C1734.14 78.8785 1734.82 81.9191 1736.17 83.5208C1737.52 85.1224 1739.68 85.9192 1742.65 85.9192C1745.37 85.9192 1747.46 85.1224 1748.94 83.5208C1750.43 81.9191 1751.17 78.8785 1751.17 74.3906H1777.49C1777.49 84.0004 1774.84 91.2688 1769.55 96.1956C1764.26 101.131 1755.3 103.594 1742.65 103.594Z" fill="white" fill-opacity="0.2"/>
<path d="M665.529 409.01C655.596 409.01 646.662 406.766 638.727 402.287C630.793 397.807 624.569 391.173 620.057 382.4C615.537 373.628 613.285 362.709 613.285 349.644V345.799C613.285 330.555 615.029 317.489 618.509 306.603C621.99 295.717 627.73 287.294 635.73 281.335C643.731 275.375 654.499 272.083 668.051 271.44C673.472 271.188 678.885 270.993 684.306 270.863C689.727 270.733 694.656 270.383 699.111 269.806C703.566 269.229 707.21 268.302 710.043 267.018V292.384C708.749 293.156 706.587 293.855 703.558 294.497C700.528 295.14 696.401 295.619 691.168 295.936C685.944 296.254 679.196 296.546 670.942 296.798C663.457 296.798 657.332 297.855 652.558 299.969C647.784 302.083 644.14 305.384 641.626 309.863C639.112 314.351 637.401 320.302 636.5 327.733C638.433 324.278 641.045 321.197 644.337 318.514C647.629 315.823 651.756 313.676 656.718 312.075C661.68 310.473 667.519 309.676 674.234 309.676C682.75 309.676 690.325 311.343 696.974 314.668C703.615 318.002 708.749 322.904 712.36 329.368C715.972 335.839 717.781 344.067 717.781 354.059V357.514C717.781 368.4 715.456 377.685 710.813 385.376C706.17 393.059 699.905 398.921 692.044 402.953C684.175 406.986 675.339 409.002 665.529 409.002V409.01ZM665.529 384.035C672.498 384.035 677.845 381.856 681.587 377.498C685.329 373.148 687.196 367.384 687.196 360.205V356.36C687.196 348.677 685.264 342.75 681.391 338.587C677.517 334.425 672.227 332.343 665.521 332.343C658.814 332.343 653.68 334.425 649.749 338.587C645.811 342.75 643.845 348.677 643.845 356.36V359.433C643.845 364.303 644.779 368.628 646.654 372.4C648.521 376.181 651.109 379.059 654.392 381.043C657.684 383.026 661.386 384.018 665.521 384.018L665.529 384.035Z" fill="#0F52BA"/>
<path d="M665.529 409.01C655.596 409.01 646.662 406.766 638.727 402.287C630.793 397.807 624.569 391.173 620.057 382.4C615.537 373.628 613.285 362.709 613.285 349.644V345.799C613.285 330.555 615.029 317.489 618.509 306.603C621.99 295.717 627.73 287.294 635.73 281.335C643.731 275.375 654.499 272.083 668.051 271.44C673.472 271.188 678.885 270.993 684.306 270.863C689.727 270.733 694.656 270.383 699.111 269.806C703.566 269.229 707.21 268.302 710.043 267.018V292.384C708.749 293.156 706.587 293.855 703.558 294.497C700.528 295.14 696.401 295.619 691.168 295.936C685.944 296.254 679.196 296.546 670.942 296.798C663.457 296.798 657.332 297.855 652.558 299.969C647.784 302.083 644.14 305.384 641.626 309.863C639.112 314.351 637.401 320.302 636.5 327.733C638.433 324.278 641.045 321.197 644.337 318.514C647.629 315.823 651.756 313.676 656.718 312.075C661.68 310.473 667.519 309.676 674.234 309.676C682.75 309.676 690.325 311.343 696.974 314.668C703.615 318.002 708.749 322.904 712.36 329.368C715.972 335.839 717.781 344.067 717.781 354.059V357.514C717.781 368.4 715.456 377.685 710.813 385.376C706.17 393.059 699.905 398.921 692.044 402.953C684.175 406.986 675.339 409.002 665.529 409.002V409.01ZM665.529 384.035C672.498 384.035 677.845 381.856 681.587 377.498C685.329 373.148 687.196 367.384 687.196 360.205V356.36C687.196 348.677 685.264 342.75 681.391 338.587C677.517 334.425 672.227 332.343 665.521 332.343C658.814 332.343 653.68 334.425 649.749 338.587C645.811 342.75 643.845 348.677 643.845 356.36V359.433C643.845 364.303 644.779 368.628 646.654 372.4C648.521 376.181 651.109 379.059 654.392 381.043C657.684 383.026 661.386 384.018 665.521 384.018L665.529 384.035Z" fill="white" fill-opacity="0.2"/>
<path d="M746.807 447.432C744.874 447.432 742.933 447.237 741.001 446.855V421.879C742.933 422.261 744.874 422.456 746.807 422.456C749.517 422.456 751.679 421.944 753.292 420.92C754.905 419.895 756.388 418.164 757.747 415.733C759.098 413.294 760.556 410.09 762.103 406.123L718.752 304.48H751.654L777.203 372.302L801.393 304.48H831.003L791.91 406.31C788.037 415.92 784.36 423.765 780.88 429.847C777.4 435.928 773.043 440.383 767.819 443.196C762.595 446.009 755.593 447.424 746.823 447.424L746.807 447.432Z" fill="#0F52BA"/>
<path d="M746.807 447.432C744.874 447.432 742.933 447.237 741.001 446.855V421.879C742.933 422.261 744.874 422.456 746.807 422.456C749.517 422.456 751.679 421.944 753.292 420.92C754.905 419.895 756.388 418.164 757.747 415.733C759.098 413.294 760.556 410.09 762.103 406.123L718.752 304.48H751.654L777.203 372.302L801.393 304.48H831.003L791.91 406.31C788.037 415.92 784.36 423.765 780.88 429.847C777.4 435.928 773.043 440.383 767.819 443.196C762.595 446.009 755.593 447.424 746.823 447.424L746.807 447.432Z" fill="white" fill-opacity="0.2"/>
<path d="M843.567 406.285V304.455H873.366V342.308H912.459V304.455H942.257V406.285H912.459V366.512H873.366V406.285H843.567Z" fill="#0F52BA"/>
<path d="M843.567 406.285V304.455H873.366V342.308H912.459V304.455H942.257V406.285H912.459V366.512H873.366V406.285H843.567Z" fill="white" fill-opacity="0.2"/>
<path d="M958.706 406.285V304.455H988.504V342.878H996.243L1024.89 304.455H1057.4L1019.66 352.3L1059.34 406.293H1024.12L996.251 365.943H988.513V406.293H958.714L958.706 406.285Z" fill="#0F52BA"/>
<path d="M958.706 406.285V304.455H988.504V342.878H996.243L1024.89 304.455H1057.4L1019.66 352.3L1059.34 406.293H1024.12L996.251 365.943H988.513V406.293H958.714L958.706 406.285Z" fill="white" fill-opacity="0.2"/>
<path d="M1113.52 408.978C1103.46 408.978 1094.43 407.059 1086.43 403.214C1078.43 399.368 1072.07 393.547 1067.36 385.726C1062.66 377.913 1060.3 368.116 1060.3 356.327V352.482C1060.3 341.213 1062.55 331.856 1067.07 324.433C1071.58 317.002 1077.75 311.368 1085.55 307.522C1093.36 303.677 1102.04 301.758 1111.58 301.758C1128.48 301.758 1141.26 306.148 1149.9 314.921C1158.54 323.693 1162.86 336.221 1162.86 352.482V363.238H1090.87C1091.13 368.23 1092.32 372.401 1094.45 375.726C1096.58 379.059 1099.32 381.458 1102.67 382.929C1106.03 384.401 1109.64 385.14 1113.51 385.14C1119.05 385.14 1123.51 384.279 1126.86 382.547C1130.21 380.815 1132.41 378.482 1133.44 375.531H1160.92C1158.86 386.677 1153.76 395.035 1145.63 400.604C1137.5 406.173 1126.8 408.962 1113.51 408.962L1113.52 408.978ZM1112.55 325.595C1108.94 325.595 1105.52 326.173 1102.29 327.327C1099.06 328.482 1096.45 330.368 1094.45 332.994C1092.45 335.62 1091.32 339.173 1091.06 343.661H1133.64C1133.64 338.921 1132.67 335.238 1130.74 332.612C1128.8 329.986 1126.25 328.164 1123.1 327.132C1119.94 326.108 1116.42 325.595 1112.55 325.595Z" fill="#0F52BA"/>
<path d="M1113.52 408.978C1103.46 408.978 1094.43 407.059 1086.43 403.214C1078.43 399.368 1072.07 393.547 1067.36 385.726C1062.66 377.913 1060.3 368.116 1060.3 356.327V352.482C1060.3 341.213 1062.55 331.856 1067.07 324.433C1071.58 317.002 1077.75 311.368 1085.55 307.522C1093.36 303.677 1102.04 301.758 1111.58 301.758C1128.48 301.758 1141.26 306.148 1149.9 314.921C1158.54 323.693 1162.86 336.221 1162.86 352.482V363.238H1090.87C1091.13 368.23 1092.32 372.401 1094.45 375.726C1096.58 379.059 1099.32 381.458 1102.67 382.929C1106.03 384.401 1109.64 385.14 1113.51 385.14C1119.05 385.14 1123.51 384.279 1126.86 382.547C1130.21 380.815 1132.41 378.482 1133.44 375.531H1160.92C1158.86 386.677 1153.76 395.035 1145.63 400.604C1137.5 406.173 1126.8 408.962 1113.51 408.962L1113.52 408.978ZM1112.55 325.595C1108.94 325.595 1105.52 326.173 1102.29 327.327C1099.06 328.482 1096.45 330.368 1094.45 332.994C1092.45 335.62 1091.32 339.173 1091.06 343.661H1133.64C1133.64 338.921 1132.67 335.238 1130.74 332.612C1128.8 329.986 1126.25 328.164 1123.1 327.132C1119.94 326.108 1116.42 325.595 1112.55 325.595Z" fill="white" fill-opacity="0.2"/>
<path d="M1175.45 444.734V304.473H1202.93V318.31C1205.64 314.213 1209.67 310.432 1215.03 306.977C1220.38 303.522 1227.05 301.79 1235.05 301.79C1249.5 301.79 1260.44 306.05 1267.86 314.571C1275.28 323.091 1278.99 335.741 1278.99 352.514V356.36C1278.99 367.888 1277.18 377.563 1273.57 385.376C1269.95 393.189 1264.89 399.083 1258.38 403.051C1251.86 407.018 1244.09 409.01 1235.05 409.01C1229.12 409.01 1223.54 407.693 1218.32 405.075C1213.09 402.449 1208.74 398.579 1205.26 393.449V444.75H1175.46L1175.45 444.734ZM1227.7 384.205C1233.63 384.205 1238.53 381.839 1242.41 377.099C1246.28 372.36 1248.21 365.441 1248.21 356.351V352.506C1248.21 343.798 1246.34 337.294 1242.6 333.002C1238.86 328.709 1233.9 326.563 1227.7 326.563C1223.57 326.563 1219.8 327.4 1216.38 329.059C1212.95 330.725 1210.25 333.286 1208.24 336.742C1206.25 340.197 1205.25 344.49 1205.25 349.612V359.221C1205.25 364.473 1206.25 368.994 1208.24 372.766C1210.24 376.547 1212.95 379.392 1216.38 381.319C1219.79 383.238 1223.57 384.197 1227.7 384.197V384.205Z" fill="#0F52BA"/>
<path d="M1175.45 444.734V304.473H1202.93V318.31C1205.64 314.213 1209.67 310.432 1215.03 306.977C1220.38 303.522 1227.05 301.79 1235.05 301.79C1249.5 301.79 1260.44 306.05 1267.86 314.571C1275.28 323.091 1278.99 335.741 1278.99 352.514V356.36C1278.99 367.888 1277.18 377.563 1273.57 385.376C1269.95 393.189 1264.89 399.083 1258.38 403.051C1251.86 407.018 1244.09 409.01 1235.05 409.01C1229.12 409.01 1223.54 407.693 1218.32 405.075C1213.09 402.449 1208.74 398.579 1205.26 393.449V444.75H1175.46L1175.45 444.734ZM1227.7 384.205C1233.63 384.205 1238.53 381.839 1242.41 377.099C1246.28 372.36 1248.21 365.441 1248.21 356.351V352.506C1248.21 343.798 1246.34 337.294 1242.6 333.002C1238.86 328.709 1233.9 326.563 1227.7 326.563C1223.57 326.563 1219.8 327.4 1216.38 329.059C1212.95 330.725 1210.25 333.286 1208.24 336.742C1206.25 340.197 1205.25 344.49 1205.25 349.612V359.221C1205.25 364.473 1206.25 368.994 1208.24 372.766C1210.24 376.547 1212.95 379.392 1216.38 381.319C1219.79 383.238 1223.57 384.197 1227.7 384.197V384.205Z" fill="white" fill-opacity="0.2"/>
</svg>
