<svg width="206" height="56" viewBox="0 0 206 56" fill="none" xmlns="http://www.w3.org/2000/svg">
<path d="M22.6534 56H38.1511C38.9661 56 39.6928 55.4941 39.9757 54.7344C40.3508 53.7282 40.5445 52.6978 40.5445 51.6572C40.5445 47.8678 37.996 44.2148 33.3681 41.3718C28.3605 38.2956 21.6504 36.6006 14.474 36.6006C9.76903 36.6006 5.26524 37.3296 1.30949 38.6988C0.52643 38.9704 0 39.7002 0 40.5225V44.2605C0 44.9652 0.611974 45.5186 1.31889 45.4477C2.23545 45.3553 3.17644 45.3068 4.13623 45.3068C13.1899 45.3068 20.6295 49.5534 21.4661 54.9808C21.5564 55.566 22.0583 56 22.6543 56H22.6534Z" fill="#0F52BA"/>
<path d="M28.2016 15.6921C37.9716 15.6921 47.3458 17.4617 55.3766 20.7573C55.8655 20.958 56.4032 20.6043 56.4032 20.0797V1.1928C56.4032 0.533867 55.8655 0 55.2018 0H1.20139C0.53771 0 0 0.533867 0 1.1928V20.0788C0 20.6043 0.53771 20.9571 1.02654 20.7573C9.05835 17.4617 18.4316 15.6921 28.2016 15.6921Z" fill="#0F52BA"/>
<path d="M56.4032 54.8072V27.9636C56.4032 27.2085 55.9585 26.5234 55.2666 26.2089C47.7002 22.7677 38.3382 20.733 28.2016 20.733C18.065 20.733 8.70207 22.7677 1.13652 26.2089C0.444645 26.5225 0 27.2076 0 27.9626V32.8113C0 33.3041 0.480367 33.6606 0.955094 33.515C5.11765 32.2373 9.71827 31.5616 14.474 31.5616C22.581 31.5616 30.2396 33.5234 36.0388 37.0869C38.969 38.8873 41.2881 41.0097 42.9294 43.3944C44.7155 45.9881 45.6208 48.7685 45.6208 51.6581C45.6208 52.821 45.4732 53.9653 45.1818 55.0872C45.0614 55.5501 45.4205 56 45.9028 56H55.2027C55.8664 56 56.4041 55.4661 56.4041 54.8072H56.4032Z" fill="#0F52BA"/>
<path d="M71.1809 24.781V9.34085H84.7327V24.781H80.7337V12.6056H75.1799V24.781H71.1809Z" fill="black"/>
<path d="M86.6199 29.1919V13.0901H89.7747V14.6786C90.0858 14.2082 90.5484 13.7742 91.1632 13.3775C91.7779 12.9809 92.5441 12.7821 93.4625 12.7821C95.1208 12.7821 96.3767 13.2711 97.2284 14.2493C98.0801 15.2274 98.5059 16.6797 98.5059 18.6051V19.0466C98.5059 20.3701 98.2982 21.4807 97.8836 22.3777C97.469 23.2746 96.8871 23.9513 96.1398 24.4067C95.3915 24.8622 94.4994 25.0909 93.4625 25.0909C92.781 25.0909 92.1408 24.9397 91.5411 24.6391C90.9413 24.3377 90.4412 23.8934 90.0417 23.3045V29.1938H86.6208L86.6199 29.1919ZM92.6184 22.2442C93.2989 22.2442 93.862 21.9726 94.3067 21.4285C94.7513 20.8843 94.9732 20.0901 94.9732 19.0466V18.6051C94.9732 17.6055 94.7579 16.8589 94.3292 16.3661C93.8996 15.8733 93.33 15.6269 92.6184 15.6269C92.1446 15.6269 91.7112 15.723 91.3183 15.9134C90.9253 16.1047 90.6151 16.3987 90.3848 16.7954C90.1554 17.1921 90.0407 17.6849 90.0407 18.2729V19.3761C90.0407 19.979 90.1554 20.4979 90.3848 20.931C90.6142 21.365 90.9253 21.6917 91.3183 21.9129C91.7103 22.1331 92.1436 22.2433 92.6184 22.2433V22.2442Z" fill="black"/>
<path d="M99.9521 24.7735V13.0835H103.285V20.1414L108.283 13.0835H111.282V24.7735H107.949V17.7157L102.951 24.7735H99.9521Z" fill="black"/>
<path d="M113.17 24.7735V13.0835H117.324L120.123 18.8842L122.923 13.0835H126.945V24.7735H123.701V17.6046L121.169 22.5671H118.947L116.415 17.6046V24.7735H113.172H113.17Z" fill="black"/>
<path d="M134.385 25.0825C133.289 25.0825 132.282 24.8622 131.364 24.4208C130.445 23.9793 129.72 23.311 129.187 22.4132C128.654 21.5162 128.387 20.3916 128.387 19.0382V18.5968C128.387 17.3321 128.654 16.2737 129.187 15.4206C129.72 14.5676 130.445 13.9133 131.364 13.4578C132.282 13.0024 133.289 12.7737 134.385 12.7737C135.481 12.7737 136.507 13.0014 137.418 13.4578C138.329 13.9142 139.051 14.5685 139.584 15.4206C140.117 16.2737 140.384 17.3321 140.384 18.5968V19.0382C140.384 20.3766 140.117 21.4901 139.584 22.3796C139.051 23.269 138.329 23.942 137.418 24.3974C136.507 24.8529 135.496 25.0816 134.385 25.0816V25.0825ZM134.385 22.2153C134.903 22.2153 135.352 22.0902 135.729 21.8401C136.107 21.59 136.392 21.2222 136.585 20.7369C136.778 20.2516 136.874 19.686 136.874 19.0382V18.5968C136.874 18.0237 136.777 17.5122 136.585 17.0642C136.392 16.6162 136.107 16.2672 135.729 16.0161C135.352 15.766 134.904 15.6409 134.385 15.6409C133.866 15.6409 133.4 15.766 133.03 16.0161C132.659 16.2662 132.378 16.6153 132.185 17.0642C131.993 17.5132 131.897 18.0237 131.897 18.5968V19.0382C131.897 19.7 131.993 20.273 132.185 20.7584C132.378 21.2437 132.659 21.6077 133.03 21.8504C133.4 22.093 133.851 22.2144 134.385 22.2144V22.2153Z" fill="black"/>
<path d="M141.827 29.1855V13.0836H144.982V14.6721C145.293 14.2017 145.756 13.7677 146.371 13.3711C146.985 12.9744 147.752 12.7756 148.67 12.7756C150.328 12.7756 151.584 13.2647 152.436 14.2428C153.288 15.2209 153.713 16.6732 153.713 18.5987V19.0401C153.713 20.3636 153.506 21.4743 153.091 22.3712C152.677 23.2681 152.095 23.9448 151.347 24.4003C150.599 24.8557 149.707 25.0844 148.67 25.0844C147.989 25.0844 147.348 24.9332 146.749 24.6327C146.149 24.3312 145.649 23.8869 145.249 23.298V29.1873H141.828L141.827 29.1855ZM147.826 22.2368C148.506 22.2368 149.07 21.9652 149.514 21.4211C149.959 20.8769 150.181 20.0827 150.181 19.0392V18.5977C150.181 17.5981 149.965 16.8515 149.537 16.3587C149.107 15.8659 148.537 15.6195 147.826 15.6195C147.352 15.6195 146.919 15.7156 146.526 15.906C146.133 16.0973 145.823 16.3913 145.592 16.788C145.363 17.1847 145.248 17.6775 145.248 18.2655V19.3687C145.248 19.9716 145.363 20.4905 145.592 20.9236C145.822 21.3576 146.133 21.6843 146.526 21.9055C146.918 22.1257 147.351 22.2359 147.826 22.2359V22.2368Z" fill="black"/>
<path d="M161.155 25.0824C160 25.0824 158.971 24.8584 158.067 24.4095C157.164 23.9615 156.453 23.2886 155.934 22.3916C155.415 21.4947 155.157 20.3775 155.157 19.0391V18.5976C155.157 17.3628 155.427 16.311 155.968 15.4439C156.509 14.5768 157.234 13.9151 158.145 13.4587C159.056 13.0032 160.059 12.7746 161.155 12.7746C162.34 12.7746 163.332 12.9808 164.132 13.3924C164.932 13.804 165.546 14.3482 165.977 15.0248C166.406 15.7015 166.657 16.451 166.732 17.2751H163.177C163.074 16.7608 162.862 16.3595 162.544 16.073C162.225 15.7864 161.762 15.6427 161.155 15.6427C160.696 15.6427 160.273 15.7491 159.889 15.9628C159.504 16.1766 159.204 16.4995 158.989 16.9335C158.774 17.3675 158.667 17.9228 158.667 18.5986V19.04C158.667 19.7606 158.77 20.356 158.978 20.8264C159.185 21.2968 159.474 21.6422 159.845 21.8634C160.215 22.0836 160.652 22.1938 161.155 22.1938C161.688 22.1938 162.133 22.0584 162.488 21.7859C162.844 21.5143 163.073 21.113 163.177 20.5838H166.732C166.657 21.4956 166.384 22.2899 165.91 22.9656C165.436 23.6423 164.795 24.164 163.989 24.5318C163.181 24.8995 162.237 25.0834 161.156 25.0834L161.155 25.0824Z" fill="black"/>
<path d="M168.175 24.7735V13.0835H171.596V17.4945H172.484L175.773 13.0835H179.505L175.173 18.5762L179.728 24.7745H175.684L172.485 20.1423H171.597V24.7745H168.176L168.175 24.7735Z" fill="black"/>
<path d="M181.171 24.7735V13.0835H184.504V20.1414L189.502 13.0835H192.501V24.7735H189.168V17.7157L184.17 24.7735H181.171Z" fill="black"/>
<path d="M194.389 24.7735V13.0835H197.722V20.1414L202.72 13.0835H205.719V24.7735H202.386V17.7156L197.388 24.7735H194.389ZM200.054 11.8926C198.603 11.8926 197.573 11.6098 196.966 11.0432C196.359 10.4776 196.055 9.64231 196.055 8.54004H199.077C199.077 9.05524 199.155 9.40431 199.31 9.58817C199.465 9.77204 199.713 9.86351 200.054 9.86351C200.365 9.86351 200.606 9.77204 200.776 9.58817C200.946 9.40431 201.032 9.05524 201.032 8.54004H204.053C204.053 9.64324 203.75 10.4776 203.142 11.0432C202.535 11.6098 201.506 11.8926 200.054 11.8926Z" fill="black"/>
<path d="M76.4018 46.9541C75.2616 46.9541 74.236 46.6965 73.325 46.1822C72.4141 45.668 71.6997 44.9064 71.1817 43.8993C70.6628 42.8922 70.4043 41.6388 70.4043 40.1389V39.6974C70.4043 37.9474 70.6045 36.4476 71.0041 35.1978C71.4036 33.9481 72.0626 32.9812 72.981 32.297C73.8994 31.6129 75.1356 31.2349 76.6914 31.1612C77.3137 31.1322 77.9351 31.1098 78.5574 31.0949C79.1797 31.08 79.7456 31.0398 80.257 30.9736C80.7684 30.9073 81.1867 30.8009 81.512 30.6534V33.5654C81.3634 33.6541 81.1153 33.7344 80.7674 33.8081C80.4196 33.8818 79.9458 33.9369 79.3451 33.9733C78.7454 34.0097 77.9708 34.0433 77.0232 34.0722C76.164 34.0722 75.4608 34.1936 74.9128 34.4362C74.3647 34.6789 73.9464 35.0578 73.6578 35.5721C73.3692 36.0873 73.1728 36.7705 73.0694 37.6236C73.2912 37.2269 73.5911 36.8732 73.969 36.5652C74.3469 36.2562 74.8207 36.0098 75.3903 35.826C75.96 35.6421 76.6303 35.5506 77.4011 35.5506C78.3788 35.5506 79.2483 35.742 80.0116 36.1237C80.774 36.5064 81.3634 37.0692 81.778 37.8112C82.1926 38.5541 82.4003 39.4986 82.4003 40.6457V41.0424C82.4003 42.2921 82.1333 43.358 81.6003 44.2409C81.0673 45.1229 80.3482 45.7958 79.4457 46.2588C78.5423 46.7217 77.528 46.9532 76.4018 46.9532V46.9541ZM76.4018 44.0869C77.2018 44.0869 77.8157 43.8368 78.2453 43.3365C78.6749 42.8372 78.8892 42.1754 78.8892 41.3513V40.9098C78.8892 40.0278 78.6674 39.3474 78.2227 38.8696C77.7781 38.3917 77.1708 38.1528 76.4009 38.1528C75.631 38.1528 75.0416 38.3917 74.5904 38.8696C74.1382 39.3474 73.9126 40.0278 73.9126 40.9098V41.2626C73.9126 41.8217 74.0197 42.3182 74.235 42.7513C74.4493 43.1853 74.7464 43.5157 75.1234 43.7434C75.5013 43.9712 75.9262 44.085 76.4009 44.085L76.4018 44.0869Z" fill="black"/>
<path d="M85.7321 51.3651C85.5102 51.3651 85.2874 51.3427 85.0656 51.2988V48.4316C85.2874 48.4754 85.5102 48.4979 85.7321 48.4979C86.0433 48.4979 86.2914 48.4391 86.4766 48.3215C86.6618 48.2039 86.832 48.0051 86.988 47.726C87.1431 47.446 87.3104 47.0783 87.4881 46.6228L82.5115 34.9543H86.2886L89.2216 42.7401L91.9985 34.9543H95.3977L90.9099 46.6443C90.4653 47.7475 90.0432 48.6481 89.6437 49.3463C89.2441 50.0444 88.744 50.5559 88.1443 50.8788C87.5445 51.2017 86.7408 51.3641 85.734 51.3641L85.7321 51.3651Z" fill="black"/>
<path d="M96.8406 46.6415V34.9515H100.261V39.2971H104.749V34.9515H108.17V46.6415H104.749V42.0757H100.261V46.6415H96.8406Z" fill="black"/>
<path d="M110.058 46.6415V34.9515H113.479V39.3625H114.368L117.656 34.9515H121.388L117.056 40.4442L121.611 46.6425H117.567L114.368 42.0103H113.48V46.6425H110.059L110.058 46.6415Z" fill="black"/>
<path d="M127.831 46.9505C126.676 46.9505 125.639 46.7302 124.72 46.2887C123.802 45.8473 123.072 45.179 122.532 44.2811C121.991 43.3842 121.721 42.2595 121.721 40.9062V40.4647C121.721 39.1711 121.979 38.0969 122.498 37.2447C123.016 36.3917 123.724 35.7449 124.62 35.3034C125.516 34.8619 126.512 34.6417 127.608 34.6417C129.549 34.6417 131.015 35.1457 132.007 36.1527C132.999 37.1598 133.495 38.5981 133.495 40.4647V41.6995H125.231C125.26 42.2726 125.397 42.7514 125.642 43.1331C125.886 43.5158 126.2 43.7911 126.585 43.9601C126.971 44.129 127.385 44.2139 127.829 44.2139C128.466 44.2139 128.977 44.115 129.362 43.9162C129.747 43.7174 129.999 43.4495 130.117 43.1107H133.272C133.035 44.3903 132.45 45.3498 131.517 45.9891C130.584 46.6285 129.355 46.9486 127.829 46.9486L127.831 46.9505ZM127.719 37.3782C127.305 37.3782 126.912 37.4445 126.541 37.577C126.171 37.7095 125.871 37.9261 125.642 38.2275C125.411 38.529 125.283 38.9369 125.252 39.4521H130.14C130.14 38.9079 130.029 38.4851 129.807 38.1837C129.585 37.8822 129.292 37.6731 128.93 37.5546C128.567 37.437 128.164 37.3782 127.719 37.3782Z" fill="black"/>
<path d="M134.94 51.0534V34.9516H138.095V36.5401C138.406 36.0697 138.868 35.6357 139.483 35.239C140.098 34.8424 140.864 34.6436 141.782 34.6436C143.441 34.6436 144.697 35.1326 145.548 36.1108C146.4 37.0889 146.826 38.5412 146.826 40.4666V40.9081C146.826 42.2316 146.618 43.3422 146.203 44.2392C145.789 45.1361 145.207 45.8128 144.46 46.2682C143.711 46.7237 142.819 46.9524 141.782 46.9524C141.101 46.9524 140.461 46.8012 139.861 46.5006C139.261 46.1992 138.761 45.7549 138.361 45.166V51.0553H134.941L134.94 51.0534ZM140.938 44.1048C141.619 44.1048 142.182 43.8332 142.627 43.289C143.071 42.7449 143.293 41.9506 143.293 40.9072V40.4657C143.293 39.4661 143.078 38.7194 142.649 38.2266C142.219 37.7338 141.65 37.4874 140.938 37.4874C140.464 37.4874 140.031 37.5836 139.638 37.774C139.245 37.9653 138.935 38.2593 138.705 38.656C138.475 39.0526 138.361 39.5454 138.361 40.1334V41.2366C138.361 41.8396 138.475 42.3585 138.705 42.7916C138.934 43.2256 139.245 43.5522 139.638 43.7734C140.03 43.9937 140.463 44.1038 140.938 44.1038V44.1048Z" fill="black"/>
</svg>
